<?xml version="1.0" encoding="utf-8"?>
<svg version="1.1" xmlns:xlink="http://www.w3.org/1999/xlink" width="47px" height="37px" xmlns="http://www.w3.org/2000/svg">
  <g transform="matrix(1 0 0 1 -692 -9 )">
    <path d="M 17.0036057692308 31.2713068181818  C 17.7191506410256 31.9370265151515  18.0769230769231 32.7253787878788  18.0769230769231 33.6363636363636  C 18.0769230769231 34.5473484848485  17.7191506410256 35.3357007575758  17.0036057692308 36.0014204545455  C 16.2880608974359 36.6671401515151  15.4407051282051 37  14.4615384615385 37  C 13.4823717948718 37  12.635016025641 36.6671401515151  11.9194711538462 36.0014204545455  C 11.2039262820513 35.3357007575758  10.8461538461538 34.5473484848485  10.8461538461538 33.6363636363636  C 10.8461538461538 32.7253787878788  11.2039262820513 31.9370265151515  11.9194711538462 31.2713068181818  C 12.635016025641 30.6055871212121  13.4823717948718 30.2727272727273  14.4615384615385 30.2727272727273  C 15.4407051282051 30.2727272727273  16.2880608974359 30.6055871212121  17.0036057692308 31.2713068181818  Z M 42.3112980769231 31.2713068181818  C 43.0268429487179 31.9370265151515  43.3846153846154 32.7253787878788  43.3846153846154 33.6363636363636  C 43.3846153846154 34.5473484848485  43.0268429487179 35.3357007575758  42.3112980769231 36.0014204545455  C 41.5957532051282 36.6671401515151  40.7483974358974 37  39.7692307692308 37  C 38.7900641025641 37  37.9427083333333 36.6671401515151  37.2271634615385 36.0014204545455  C 36.5116185897436 35.3357007575758  36.1538461538462 34.5473484848485  36.1538461538462 33.6363636363636  C 36.1538461538462 32.7253787878788  36.5116185897436 31.9370265151515  37.2271634615385 31.2713068181818  C 37.9427083333333 30.6055871212121  38.7900641025641 30.2727272727273  39.7692307692308 30.2727272727273  C 40.7483974358974 30.2727272727273  41.5957532051282 30.6055871212121  42.3112980769231 31.2713068181818  Z M 46.4633413461538 3.86292613636364  C 46.8211137820513 4.19578598484848  47 4.58996212121212  47 5.04545454545455  L 47 18.5  C 47 18.9204545454545  46.8446514423077 19.2927320075758  46.5339543269231 19.6168323863636  C 46.2232572115385 19.9409327651515  45.8419471153846 20.1292613636364  45.3900240384615 20.1818181818182  L 15.9020432692308 23.3877840909091  C 16.1468349358974 24.4389204545455  16.2692307692308 25.0520833333333  16.2692307692308 25.2272727272727  C 16.2692307692308 25.5075757575758  16.0432692307692 26.0681818181818  15.5913461538462 27  L 41.5769230769231 27  C 42.0665064102564 26.9090909090909  42.4901842948718 27.0755208333333  42.8479567307692 27.4083806818182  C 43.2057291666667 27.741240530303  43.3846153846154 28.1354166666667  43.3846153846154 28.5909090909091  C 43.3846153846154 29.0464015151515  43.2057291666667 29.4405776515151  42.8479567307692 29.7734375  C 42.4901842948718 30.1062973484849  42.0665064102564 30.2727272727273  41.5769230769231 30  L 12.6538461538462 30  C 12.1642628205128 30.2727272727273  11.7405849358974 30.1062973484849  11.3828125 29.7734375  C 11.0250400641026 29.4405776515151  10.8461538461538 29.0464015151515  10.8461538461538 28.5909090909091  C 10.8461538461538 28.3982007575758  10.9214743589744 28.1222774621212  11.0721153846154 27.7631392045455  C 11.2227564102564 27.4040009469697  11.3733974358974 27.0886600378788  11.5240384615385 26.8171164772727  C 11.6746794871795 26.5455729166667  11.8771033653846 26.1951941287879  12.1313100961538 25.7659801136364  C 12.3855168269231 25.3367660984848  12.5314503205128 25.0783617424242  12.5691105769231 24.9907670454545  L 7.56971153846154 3.36363636363636  L 1.80769230769231 3.36363636363636  C 1.31810897435897 3.36363636363636  0.89443108974359 3.19720643939394  0.536658653846154 2.86434659090909  C 0.178886217948718 2.53148674242424  0 2.13731060606061  0 1.68181818181818  C 0 1.22632575757576  0.178886217948718 0.832149621212116  0.536658653846154 0.499289772727275  C 0.89443108974359 0.166429924242421  1.31810897435897 0  1.80769230769231 0  L 9.03846153846154 0  C 9.33974358974359 0  9.60807291666667 0.0569365530303005  9.84344951923077 0.17080965909091  C 10.0788261217949 0.284682765151515  10.2624198717949 0.420454545454545  10.3942307692308 0.578125  C 10.5260416666667 0.735795454545455  10.6484375 0.950402462121206  10.7614182692308 1.22194602272727  C 10.8743990384615 1.49348958333333  10.9497195512821 1.72123579545454  10.9873798076923 1.90518465909091  C 11.0250400641026 2.08913352272727  11.0768229166667 2.34753787878788  11.1427283653846 2.68039772727273  C 11.2086338141026 3.01325757575757  11.2510016025641 3.24100378787879  11.2698317307692 4  L 45.1923076923077 4  C 45.681891025641 3.36363636363636  46.1055689102564 3.53006628787879  46.4633413461538 3.86292613636364  Z " fill-rule="nonzero" fill="#aaaaaa" stroke="none" transform="matrix(1 0 0 1 692 9 )" />
  </g>
</svg>