<?xml version="1.0" encoding="utf-8"?>
<svg version="1.1" xmlns:xlink="http://www.w3.org/1999/xlink" width="26px" height="31px" xmlns="http://www.w3.org/2000/svg">
  <g transform="matrix(1 0 0 1 -450 -2623 )">
    <path d="M 25.6381156316916 18.8733258928571  C 25.8793718772306 19.3807663690476  26 19.9228050595238  26 20.4994419642857  C 26 22.2639508928571  25.0767309064954 23.7833891369048  23.2301927194861 25.0577566964286  C 21.3836545324768 26.3321242559524  18.9850107066381 27.1192336309524  16.03426124197 27.4190848214286  L 16.03426124197 30.4464285714286  C 16.03426124197 30.6078869047619  15.9507494646681 30.7405133928571  15.7837259100642 30.8443080357143  C 15.6167023554604 30.9481026785714  15.4032833690221 31  15.1434689507495 31  L 11.3854389721627 31  C 11.1441827266238 31  10.935403283369 30.9452194940476  10.7591006423983 30.8356584821429  C 10.5827980014276 30.7260974702381  10.4946466809422 30.5963541666667  10.4946466809422 30.4464285714286  L 10.4946466809422 27.4190848214286  C 9.26980728051392 27.3152901785714  8.08672376873662 27.1365327380952  6.94539614561028 26.8828125  C 5.80406852248394 26.6290922619048  4.86224125624554 26.3724888392857  4.11991434689508 26.1130022321429  C 3.37758743754461 25.853515625  2.69093504639543 25.5767299107143  2.05995717344754 25.2826450892857  C 1.42897930049964 24.9885602678571  0.997501784439686 24.7723214285714  0.765524625267666 24.6339285714286  C 0.533547466095646 24.4955357142857  0.371163454675232 24.3917410714286  0.278372591006424 24.3225446428571  C -0.0371163454675231 24.0803571428571  -0.0556745182012848 23.8439360119048  0.222698072805139 23.61328125  L 3.08993576017131 21.2779017857143  C 3.21984296930764 21.1625744047619  3.4332619557459 21.0933779761905  3.73019271948608 21.0703125  C 4.00856531049251 21.0472470238095  4.23126338329764 21.0991443452381  4.3982869379015 21.2260044642857  L 4.45396145610278 21.2606026785714  C 6.55103497501785 22.40234375  8.80585296216988 23.1231398809524  11.2184154175589 23.4229910714286  C 11.9050678087081 23.5152529761905  12.5917201998572 23.5613839285714  13.2783725910064 23.5613839285714  C 14.7815845824411 23.5613839285714  16.1038543897216 23.3134300595238  17.245182012848 22.8175223214286  C 18.3865096359743 22.3216145833333  18.9571734475375 21.6181175595238  18.9571734475375 20.70703125  C 18.9571734475375 20.3841145833333  18.8179871520343 20.0784970238095  18.5396145610278 19.7901785714286  C 18.2612419700214 19.5018601190476  17.9503925767309 19.2596726190476  17.6070663811563 19.0636160714286  C 17.2637401855817 18.8675595238095  16.7209136331192 18.6513206845238  15.9785867237687 18.4148995535714  C 15.2362598144183 18.178478422619  14.6238401142041 17.9939546130952  14.1413276231263 17.861328125  C 13.6588151320485 17.7287016369048  12.9164882226981 17.5412946428571  11.9143468950749 17.2991071428571  C 11.1905781584582 17.1145833333333  10.6199143468951 16.9704241071429  10.2023554603854 16.8666294642857  C 9.7847965738758 16.7628348214286  9.21413276231263 16.6100260416667  8.49036402569593 16.408203125  C 7.76659528907923 16.2063802083333  7.18665239114918 16.0276227678571  6.75053533190578 15.8719308035714  C 6.31441827266239 15.7162388392857  5.79014989293362 15.5115327380952  5.17773019271949 15.2578125  C 4.56531049250535 15.0040922619048  4.06887937187723 14.759021577381  3.68843683083512 14.5226004464286  C 3.30799428979301 14.2861793154762  2.90435403283369 14.0036272321429  2.47751605995717 13.6749441964286  C 2.05067808708066 13.3462611607143  1.72127052105639 13.0118117559524  1.48929336188437 12.6715959821429  C 1.25731620271235 12.3313802083333  1.06245538900785 11.9479166666667  0.904710920770878 11.5212053571429  C 0.746966452533905 11.094494047619  0.668094218415418 10.6447172619048  0.668094218415418 10.171875  C 0.668094218415418 8.58035714285714  1.57744468236974 7.18489583333333  3.39614561027837 5.98549107142857  C 5.21484653818701 4.78608630952381  7.58101356174161 4.01339285714286  10.4946466809422 3.66741071428571  L 10.4946466809422 0.55357142857143  C 10.4946466809422 0.403645833333331  10.5827980014276 0.273902529761904  10.7591006423983 0.164341517857143  C 10.935403283369 0.0547805059523823  11.1441827266238 0  11.3854389721627 0  L 15.1434689507495 0  C 15.4032833690221 0  15.6167023554604 0.05189732142857  15.7837259100642 0.155691964285713  C 15.9507494646681 0.259486607142857  16.03426124197 0.392113095238092  16.03426124197 0.55357142857143  L 16.03426124197 3.59821428571429  C 17.0920770877944 3.66741071428571  18.1174161313348 3.80003720238095  19.110278372591 3.99609375  C 20.1031406138473 4.19215029761905  20.9104211277659 4.38532366071429  21.5321199143469 4.57561383928571  C 22.1538187009279 4.76590401785714  22.7430406852248 4.98214285714286  23.2997858672377 5.22433035714286  C 23.8565310492505 5.46651785714286  24.2184154175589 5.63374255952381  24.3854389721627 5.72600446428571  C 24.5524625267666 5.81826636904762  24.6916488222698 5.89899553571429  24.8029978586724 5.96819196428571  C 25.1184867951463 6.17578125  25.1648822269807 6.39490327380952  24.9421841541756 6.62555803571429  L 22.6873661670236 9.15122767857143  C 22.5389007851535 9.32421875  22.3254817987152 9.41648065476191  22.0471092077088 9.42801339285714  C 21.7872947894361 9.46261160714286  21.5367594575303 9.42224702380952  21.2955032119914 9.30691964285714  C 21.2398286937901 9.27232142857143  21.1052819414704 9.203125  20.8918629550321 9.09933035714286  C 20.6784439685939 8.99553571428571  20.3165596002855 8.8427269345238  19.8062098501071 8.64090401785714  C 19.2958600999286 8.43908110119047  18.7530335474661 8.25455729166667  18.1777301927195 8.08733258928571  C 17.6024268379729 7.92010788690476  16.9111349036403 7.77018229166667  16.1038543897216 7.63755580357143  C 15.296573875803 7.50492931547619  14.5032119914347 7.43861607142857  13.7237687366167 7.43861607142857  C 11.9607423269094 7.43861607142857  10.5224839400428 7.68656994047619  9.40899357601713 8.18247767857143  C 8.29550321199144 8.67838541666667  7.73875802997859 9.31845238095238  7.73875802997859 10.1026785714286  C 7.73875802997859 10.4025297619048  7.81763026409708 10.6793154761905  7.97537473233405 10.9330357142857  C 8.13311920057102 11.1867559523809  8.406852248394 11.4260602678571  8.796573875803 11.6509486607143  C 9.18629550321199 11.8758370535714  9.55281941470378 12.0661272321429  9.89614561027837 12.2218191964286  C 10.239471805853 12.3775111607143  10.7591006423983 12.5562686011905  11.4550321199143 12.7580915178571  C 12.1509635974304 12.9599144345238  12.7123483226267 13.1156063988095  13.1391862955032 13.2251674107143  C 13.5660242683797 13.334728422619  14.2155603140614 13.4933035714286  15.0877944325482 13.7008928571429  C 16.0713775874375 13.9315476190476  16.8229835831549 14.1131882440476  17.3426124197002 14.2458147321429  C 17.8622412562455 14.3784412202381  18.5674518201285 14.5802641369048  19.458244111349 14.8512834821429  C 20.3490364025696 15.122302827381  21.0496074232691 15.3673735119048  21.5599571734475 15.5864955357143  C 22.070306923626 15.8056175595238  22.6456102783726 16.0939360119048  23.2858672376874 16.4514508928571  C 23.9261241970021 16.8089657738095  24.4179157744468 17.1751302083333  24.7612419700214 17.5499441964286  C 25.104568165596 17.9247581845238  25.3968593861527 18.3658854166667  25.6381156316916 18.8733258928571  Z " fill-rule="nonzero" fill="#aaaaaa" stroke="none" transform="matrix(1 0 0 1 450 2623 )" />
  </g>
</svg>