<?xml version="1.0" encoding="utf-8"?>
<svg version="1.1" xmlns:xlink="http://www.w3.org/1999/xlink" width="1024px" height="437px" xmlns="http://www.w3.org/2000/svg">
  <g transform="matrix(1 0 0 1 0 -117 )">
    <path d="M 0 117  L 1024 117  L 1024 554  L 0 554  L 0 117  " fill-rule="nonzero" fill="#cccccc" stroke="none" />
    <path d="M 31 148  L 993 148  L 993 523  L 31 523  L 31 148  " fill-rule="nonzero" fill="#ffffff" stroke="none" />
    <path d="M 565.255 248.1  C 546.901 248.1  532.48 233.679  532.48 215.325  C 532.48 196.971  546.901 182.55  565.255 182.55  C 583.609 182.55  598.03 196.971  598.03 215.325  C 598.03 233.679  583.609 248.1  565.255 248.1  " fill-rule="nonzero" fill="#cccccc" stroke="none" />
    <path d="M 42 512  L 42 317.85  L 277 229.6  L 606 421.6126953125  L 794 282.55  L 982 421.6126953125  L 982 512  L 42 512  " fill-rule="nonzero" fill="#169bd5" stroke="none" />
  </g>
</svg>