<?xml version="1.0" encoding="utf-8"?>
<svg version="1.1" xmlns:xlink="http://www.w3.org/1999/xlink" width="716px" height="50px" xmlns="http://www.w3.org/2000/svg">
  <g transform="matrix(1 0 0 1 -193 -2022 )">
    <path d="M 697.220982142857 4.58984375  C 709.740327380952 7.64973958333333  716 11.328125  716 15.625  L 716 34.375  C 716 38.671875  709.740327380952 42.3502604166667  697.220982142857 45.41015625  C 684.701636904762 48.4700520833333  669.651785714286 50  652.071428571429 50  L 63.9285714285714 50  C 46.3482142857143 50  31.2983630952381 48.4700520833333  18.7790178571429 45.41015625  C 6.25967261904762 42.3502604166667  0 38.671875  0 34.375  L 0 15.625  C 0 11.328125  6.25967261904762 7.64973958333333  18.7790178571429 4.58984375  C 31.2983630952381 1.52994791666667  46.3482142857143 0  63.9285714285714 0  L 652.071428571429 0  C 669.651785714286 0  684.701636904762 1.52994791666667  697.220982142857 4.58984375  Z " fill-rule="nonzero" fill="#000000" stroke="none" transform="matrix(1 0 0 1 193 2022 )" />
  </g>
</svg>