<?xml version="1.0" encoding="utf-8"?>
<svg version="1.1" xmlns:xlink="http://www.w3.org/1999/xlink" width="50px" height="50px" xmlns="http://www.w3.org/2000/svg">
  <g transform="matrix(1 0 0 1 -919 -1620 )">
    <path d="M 24.4811932555123 26.461038961039  L 1.4591439688716 49.512987012987  C 1.04842196281885 49.9242424242424  0.702550799827065 50.0649350649351  0.421530479896239 49.9350649350649  C 0.140510159965413 49.8051948051948  0 49.4588744588745  0 48.8961038961039  L 0 1.1038961038961  C 0 0.541125541125537  0.140510159965413 0.194805194805192  0.421530479896239 0.0649350649350622  C 0.702550799827065 -0.0649350649350677  1.04842196281885 0.0757575757575735  1.4591439688716 0.487012987012986  L 24.4811932555123 23.538961038961  C 24.6757457846952 23.7337662337662  24.8162559446606 23.9393939393939  25 24.1558441558442  L 25 1.1038961038961  C 24.9027237354086 0.541125541125537  25.043233895374 0.194805194805192  25.3242542153048 0.0649350649350622  C 25.6052745352356 -0.0649350649350677  25.9511456982274 0.0757575757575735  26.3618677042802 0.487012987012986  L 49.3839169909209 23.538961038961  C 49.7946389969736 23.9502164502164  50 24.4372294372294  50 25  C 50 25.5627705627706  49.7946389969736 26.0497835497835  49.3839169909209 26.461038961039  L 26.3618677042802 49.512987012987  C 25.9511456982274 49.9242424242424  25.6052745352356 50.0649350649351  25.3242542153048 49.9350649350649  C 25.043233895374 49.8051948051948  24.9027237354086 49.4588744588745  25 48.8961038961039  L 25 25.8441558441558  C 24.8162559446606 26.0606060606061  24.6757457846952 26.2662337662338  24.4811932555123 26.461038961039  Z " fill-rule="nonzero" fill="#000000" stroke="none" transform="matrix(1 0 0 1 919 1620 )" />
  </g>
</svg>