<?xml version="1.0" encoding="utf-8"?>
<svg version="1.1" xmlns:xlink="http://www.w3.org/1999/xlink" width="216px" height="199px" xmlns="http://www.w3.org/2000/svg">
  <g transform="matrix(1 0 0 1 -433 -1333 )">
    <path d="M 53.7890625 13.3444010416667  C 70.3359375 4.44813368055554  88.40625 0  108 0  C 127.59375 0  145.6640625 4.44813368055554  162.2109375 13.3444010416667  C 178.7578125 22.2406684027778  191.859375 34.3110894097222  201.515625 49.5556640625  C 211.171875 64.8002387152778  216 81.4483506944444  216 99.5  C 216 117.551649305556  211.171875 134.199761284722  201.515625 149.4443359375  C 191.859375 164.688910590278  178.7578125 176.759331597222  162.2109375 185.655598958333  C 145.6640625 194.551866319444  127.59375 199  108 199  C 88.40625 199  70.3359375 194.551866319444  53.7890625 185.655598958333  C 37.2421875 176.759331597222  24.140625 164.688910590278  14.484375 149.4443359375  C 4.828125 134.199761284722  0 117.551649305556  0 99.5  C 0 81.4483506944444  4.828125 64.8002387152778  14.484375 49.5556640625  C 24.140625 34.3110894097222  37.2421875 22.2406684027778  53.7890625 13.3444010416667  Z M 85.5 148.083984375  L 162 106.625651041667  C 165 105.070963541667  166.5 102.695746527778  166.5 99.5  C 166.5 96.3042534722222  165 93.9290364583333  162 92.3743489583333  L 85.5 50.916015625  C 82.59375 49.2749565972222  79.59375 49.2317708333333  76.5 50.7864583333333  C 73.5 52.4275173611111  72 54.8459201388889  72 58.0416666666667  L 72 140.958333333333  C 72 144.154079861111  73.5 146.572482638889  76.5 148.213541666667  C 78 148.904513888889  79.5 149.25  81 149.25  C 82.59375 149.25  84.09375 148.861328125  85.5 148.083984375  Z " fill-rule="nonzero" fill="#000000" stroke="none" transform="matrix(1 0 0 1 433 1333 )" />
  </g>
</svg>