<?xml version="1.0" encoding="utf-8"?>
<svg version="1.1" xmlns:xlink="http://www.w3.org/1999/xlink" width="459px" height="6px" xmlns="http://www.w3.org/2000/svg">
  <g transform="matrix(1 0 0 1 -287 -1044 )">
    <path d="M 446.961495535714 0.55078125  C 454.987165178572 0.917968749999999  459 1.359375  459 1.875  L 459 4.125  C 459 4.640625  454.987165178572 5.08203125  446.961495535714 5.44921875  C 438.935825892857 5.81640625  429.287946428572 6  418.017857142857 6  L 40.9821428571429 6  C 29.7120535714286 6  20.0641741071429 5.81640625  12.0385044642857 5.44921875  C 4.01283482142857 5.08203125  0 4.640625  0 4.125  L 0 1.875  C 0 1.359375  4.01283482142857 0.917968749999999  12.0385044642857 0.55078125  C 20.0641741071429 0.183593750000001  29.7120535714286 0  40.9821428571429 0  L 418.017857142857 0  C 429.287946428572 0  438.935825892857 0.183593750000001  446.961495535714 0.55078125  Z " fill-rule="nonzero" fill="#d7d7d7" stroke="none" transform="matrix(1 0 0 1 287 1044 )" />
  </g>
</svg>