<?xml version="1.0" encoding="utf-8"?>
<svg version="1.1" xmlns:xlink="http://www.w3.org/1999/xlink" width="14px" height="21px" xmlns="http://www.w3.org/2000/svg">
  <g transform="matrix(1 0 0 1 -522 -2563 )">
    <path d="M 13.7594501718213 10.0160320641283  C 13.9198167239404 10.1563126252505  14 10.3176352705411  14 10.5  C 14 10.6823647294589  13.9198167239404 10.8436873747495  13.7594501718213 10.9839679358717  L 2.54982817869416 20.7895791583166  C 2.38946162657503 20.9298597194389  2.20504009163803 21  1.99656357388316 21  C 1.78808705612829 21  1.60366552119129 20.9298597194389  1.44329896907216 20.7895791583166  L 0.240549828178694 19.7374749498998  C 0.0801832760595648 19.5971943887776  0 19.435871743487  0 19.2535070140281  C 0 19.0711422845691  0.0801832760595648 18.9098196392786  0.240549828178694 18.7695390781563  L 9.69415807560137 10.5  L 0.240549828178694 2.23046092184369  C 0.0801832760595648 2.09018036072144  0 1.92885771543086  0 1.74649298597194  C 0 1.56412825651302  0.0801832760595648 1.40280561122244  0.240549828178694 1.2625250501002  L 1.44329896907216 0.210420841683367  C 1.60366552119129 0.0701402805611215  1.78808705612829 0  1.99656357388316 0  C 2.20504009163803 0  2.38946162657503 0.0701402805611215  2.54982817869416 0.210420841683367  L 13.7594501718213 10.0160320641283  Z " fill-rule="nonzero" fill="#aaaaaa" stroke="none" transform="matrix(1 0 0 1 522 2563 )" />
  </g>
</svg>