<?xml version="1.0" encoding="utf-8"?>
<svg version="1.1" xmlns:xlink="http://www.w3.org/1999/xlink" width="29px" height="23px" xmlns="http://www.w3.org/2000/svg">
  <g transform="matrix(1 0 0 1 -811 -5 )">
    <path d="M 10.4915865384615 19.4389204545455  C 10.933092948718 19.8527462121212  11.1538461538462 20.342803030303  11.1538461538462 20.9090909090909  C 11.1538461538462 21.4753787878788  10.933092948718 21.9654356060606  10.4915865384615 22.3792613636364  C 10.0500801282051 22.7930871212121  9.52724358974359 23  8.92307692307692 23  C 8.31891025641026 23  7.79607371794872 22.7930871212121  7.35456730769231 22.3792613636364  C 6.9130608974359 21.9654356060606  6.69230769230769 21.4753787878788  6.69230769230769 20.9090909090909  C 6.69230769230769 20.342803030303  6.9130608974359 19.8527462121212  7.35456730769231 19.4389204545455  C 7.79607371794872 19.0250946969697  8.31891025641026 18.8181818181818  8.92307692307692 18.8181818181818  C 9.52724358974359 18.8181818181818  10.0500801282051 19.0250946969697  10.4915865384615 19.4389204545455  Z M 26.1069711538462 19.4389204545455  C 26.5484775641026 19.8527462121212  26.7692307692308 20.342803030303  26.7692307692308 20.9090909090909  C 26.7692307692308 21.4753787878788  26.5484775641026 21.9654356060606  26.1069711538462 22.3792613636364  C 25.6654647435897 22.7930871212121  25.1426282051282 23  24.5384615384615 23  C 23.9342948717949 23  23.4114583333333 22.7930871212121  22.9699519230769 22.3792613636364  C 22.5284455128205 21.9654356060606  22.3076923076923 21.4753787878788  22.3076923076923 20.9090909090909  C 22.3076923076923 20.342803030303  22.5284455128205 19.8527462121212  22.9699519230769 19.4389204545455  C 23.4114583333333 19.0250946969697  23.9342948717949 18.8181818181818  24.5384615384615 18.8181818181818  C 25.1426282051282 18.8181818181818  25.6654647435897 19.0250946969697  26.1069711538462 19.4389204545455  Z M 28.6688701923077 2.40127840909091  C 28.8896233974359 2.60819128787879  29 2.85321969696969  29 3.13636363636364  L 29 11.5  C 29 11.7613636363636  28.9041466346154 11.9927793560606  28.7124399038462 12.1942471590909  C 28.5207331730769 12.3957149621212  28.2854567307692 12.5127840909091  28.0066105769231 12.5454545454545  L 9.81189903846154 14.5383522727273  C 9.96294070512821 15.1917613636364  10.0384615384615 15.5729166666667  10.0384615384615 15.6818181818182  C 10.0384615384615 15.8560606060606  9.89903846153846 16.2045454545455  9.62019230769231 16.7272727272727  L 25.6538461538462 16.7272727272727  C 25.9559294871795 16.7272727272727  26.2173477564103 16.8307291666667  26.4381009615385 17.0376420454545  C 26.6588541666667 17.2445549242424  26.7692307692308 17.4895833333333  26.7692307692308 17.7727272727273  C 26.7692307692308 18.0558712121212  26.6588541666667 18.3008996212121  26.4381009615385 18.5078125  C 26.2173477564103 18.7147253787879  25.9559294871795 18.8181818181818  25.6538461538462 18.8181818181818  L 7.80769230769231 18.8181818181818  C 7.50560897435898 18.8181818181818  7.24419070512821 18.7147253787879  7.0234375 18.5078125  C 6.80268429487179 18.3008996212121  6.69230769230769 18.0558712121212  6.69230769230769 17.7727272727273  C 6.69230769230769 17.6529356060606  6.73878205128205 17.481415719697  6.83173076923077 17.2581676136364  C 6.92467948717949 17.0349195075758  7.01762820512821 16.838896780303  7.11057692307692 16.6700994318182  C 7.20352564102564 16.5013020833333  7.32842548076923 16.2834990530303  7.48527644230769 16.0166903409091  C 7.64212740384615 15.7498816287879  7.73217147435898 15.5892518939394  7.75540865384615 15.5348011363636  L 4.67067307692308 2.09090909090909  L 1.11538461538462 2.09090909090909  C 0.813301282051282 2.09090909090909  0.551883012820513 1.98745265151515  0.331129807692308 1.78053977272727  C 0.110376602564103 1.57362689393939  0 1.32859848484848  0 1.04545454545454  C 0 0.762310606060605  0.110376602564103 0.517282196969694  0.331129807692308 0.310369318181819  C 0.551883012820513 0.103456439393937  0.813301282051282 0  1.11538461538462 0  L 5.57692307692308 0  C 5.76282051282051 0  5.92838541666667 0.0353929924242409  6.07361778846154 0.106178977272728  C 6.21885016025641 0.176964962121212  6.33213141025641 0.261363636363636  6.41346153846154 0.359375  C 6.49479166666667 0.457386363636364  6.5703125 0.590790719696966  6.64002403846154 0.759588068181819  C 6.70973557692308 0.928385416666665  6.75620993589744 1.06995738636364  6.77944711538462 1.18430397727273  C 6.8026842948718 1.29865056818182  6.83463541666667 1.4592803030303  6.87530048076923 1.66619318181818  C 6.9159655448718 1.87310606060606  6.94210737179487 2.01467803030303  6.95372596153846 2  L 27.8846153846154 2  C 28.1866987179487 2.09090909090909  28.4481169871795 2.19436553030303  28.6688701923077 2.40127840909091  Z " fill-rule="nonzero" fill="#015478" stroke="none" transform="matrix(1 0 0 1 811 5 )" />
  </g>
</svg>