<?xml version="1.0" encoding="utf-8"?>
<svg version="1.1" xmlns:xlink="http://www.w3.org/1999/xlink" width="15px" height="10px" xmlns="http://www.w3.org/2000/svg">
  <g transform="matrix(1 0 0 1 -890 -10 )">
    <path d="M 14.8496993987976 1.03092783505155  C 14.9498997995992 1.14547537227949  15 1.27720504009164  15 1.42611683848797  C 15 1.57502863688431  14.9498997995992 1.70675830469645  14.8496993987976 1.8213058419244  L 7.84569138276553 9.82817869415807  C 7.74549098196393 9.94272623138602  7.63026052104208 10  7.5 10  C 7.36973947895792 10  7.25450901803607 9.94272623138602  7.15430861723447 9.82817869415807  L 0.150300601202405 1.8213058419244  C 0.0501002004008018 1.70675830469645  0 1.57502863688431  0 1.42611683848797  C 0 1.27720504009164  0.0501002004008018 1.14547537227949  0.150300601202405 1.03092783505155  L 0.901803607214429 0.171821305841925  C 1.00200400801603 0.0572737686139735  1.11723446893788 0  1.24749498997996 0  C 1.37775551102204 0  1.49298597194389 0.0572737686139735  1.59318637274549 0.171821305841925  L 7.5 6.92439862542955  L 13.4068136272545 0.171821305841925  C 13.5070140280561 0.0572737686139735  13.622244488978 0  13.75250501002 0  C 13.8827655310621 0  13.997995991984 0.0572737686139735  14.0981963927856 0.171821305841925  L 14.8496993987976 1.03092783505155  Z " fill-rule="nonzero" fill="#015478" stroke="none" transform="matrix(1 0 0 1 890 10 )" />
  </g>
</svg>