<?xml version="1.0" encoding="utf-8"?>
<svg version="1.1" xmlns:xlink="http://www.w3.org/1999/xlink" width="37px" height="40px" xmlns="http://www.w3.org/2000/svg">
  <g transform="matrix(1 0 0 1 -965 -61 )">
    <path d="M 22.69140625 24.53125  C 24.6407251602564 22.4238782051282  25.6153846153846 19.8878205128205  25.6153846153846 16.9230769230769  C 25.6153846153846 13.9583333333333  24.6407251602564 11.4222756410256  22.69140625 9.31490384615385  C 20.7420873397436 7.20753205128205  18.396233974359 6.15384615384615  15.6538461538462 6.15384615384615  C 12.9114583333333 6.15384615384615  10.5656049679487 7.20753205128205  8.61628605769231 9.31490384615385  C 6.6669671474359 11.4222756410256  5.69230769230769 13.9583333333333  5.69230769230769 16.9230769230769  C 5.69230769230769 19.8878205128205  6.6669671474359 22.4238782051282  8.61628605769231 24.53125  C 10.5656049679487 26.6386217948718  12.9114583333333 27.6923076923077  15.6538461538462 27.6923076923077  C 18.396233974359 27.6923076923077  20.7420873397436 26.6386217948718  22.69140625 24.53125  Z M 36.1772836538462 34.7596153846154  C 36.7257612179487 35.3525641025641  37 36.0737179487179  37 36.9230769230769  C 37 37.7564102564103  36.7183493589744 38.4775641025641  36.1550480769231 39.0865384615385  C 35.5917467948718 39.6955128205128  34.9246794871795 40  34.1538461538462 40  C 33.3533653846154 40  32.6862980769231 39.6955128205128  32.1526442307692 39.0865384615385  L 24.5258413461538 30.8653846153846  C 21.8723958333333 32.8525641025641  18.9150641025641 33.8461538461538  15.6538461538462 33.8461538461538  C 13.5340544871795 33.8461538461538  11.5069110576923 33.4014423076923  9.57241586538462 32.5120192307692  C 7.63792067307692 31.6225961538462  5.97025240384615 30.4206730769231  4.56941105769231 28.90625  C 3.16856971153846 27.3918269230769  2.05679086538462 25.5889423076923  1.23407451923077 23.4975961538462  C 0.411358173076923 21.40625  0 19.2147435897436  0 16.9230769230769  C 0 14.6314102564103  0.411358173076923 12.4399038461538  1.23407451923077 10.3485576923077  C 2.05679086538462 8.25721153846154  3.16856971153846 6.45432692307693  4.56941105769231 4.93990384615385  C 5.97025240384615 3.42548076923077  7.63792067307692 2.22355769230769  9.57241586538462 1.33413461538462  C 11.5069110576923 0.444711538461537  13.5340544871795 0  15.6538461538462 0  C 17.7736378205128 0  19.80078125 0.444711538461537  21.7352764423077 1.33413461538462  C 23.6697716346154 2.22355769230769  25.3374399038462 3.42548076923077  26.73828125 4.93990384615385  C 28.1391225961538 6.45432692307693  29.2509014423077 8.25721153846154  30.0736177884615 10.3485576923077  C 30.8963341346154 12.4399038461538  31.3076923076923 14.6314102564103  31.3076923076923 16.9230769230769  C 31.3076923076923 20.4487179487179  30.3886217948718 23.6458333333333  28.5504807692308 26.5144230769231  L 36.1772836538462 34.7596153846154  Z " fill-rule="nonzero" fill="#ffffff" stroke="none" transform="matrix(1 0 0 1 965 61 )" />
  </g>
</svg>