<?xml version="1.0" encoding="utf-8"?>
<svg version="1.1" xmlns:xlink="http://www.w3.org/1999/xlink" width="11px" height="12px" xmlns="http://www.w3.org/2000/svg">
  <g transform="matrix(1 0 0 1 -177 -690 )">
    <path d="M 10.7958984375 0.395833333333334  C 10.9319661458333 0.65972222222222  11 0.972222222222219  11 1.33333333333333  C 11 1.69444444444444  10.9319661458333 2.00694444444444  10.7958984375 2.27083333333333  L 5.9833984375 11.6041666666667  C 5.84733072916667 11.8680555555556  5.68619791666667 12  5.5 12  C 5.31380208333333 12  5.15266927083333 11.8680555555556  5.0166015625 11.6041666666667  L 0.2041015625 2.27083333333333  C 0.0680338541666667 2.00694444444444  0 1.69444444444444  0 1.33333333333333  C 0 0.972222222222219  0.0680338541666667 0.65972222222222  0.2041015625 0.395833333333334  C 0.340169270833333 0.131944444444443  0.501302083333333 0  0.6875 0  L 10.3125 0  C 10.4986979166667 0  10.6598307291667 0.131944444444443  10.7958984375 0.395833333333334  Z " fill-rule="nonzero" fill="#d7d7d7" stroke="none" transform="matrix(1 0 0 1 177 690 )" />
  </g>
</svg>