<?xml version="1.0" encoding="utf-8"?>
<svg version="1.1" xmlns:xlink="http://www.w3.org/1999/xlink" width="30px" height="36px" xmlns="http://www.w3.org/2000/svg">
  <g transform="matrix(1 0 0 1 -976 -7 )">
    <path d="M 8.33333333333333 11.4545454545455  L 8.33333333333333 17  L 21.6666666666667 17  L 21.6666666666667 11.4545454545455  C 21.6666666666667 9.64772727272727  21.015625 8.10511363636363  19.7135416666667 6.82670454545454  C 18.4114583333333 5.54829545454546  16.8402777777778 4.90909090909091  15 4.90909090909091  C 13.1597222222222 4.90909090909091  11.5885416666667 5.54829545454546  10.2864583333333 6.82670454545454  C 8.984375 8.10511363636363  8.33333333333333 9.64772727272727  8.33333333333333 11.4545454545455  Z M 29.2708333333333 17.0795454545455  C 29.7569444444444 17.5568181818182  30 18.1363636363636  30 18.8181818181818  L 30 33.5454545454545  C 30 34.2272727272727  29.7569444444444 34.8068181818182  29.2708333333333 35.2840909090909  C 28.7847222222222 35.7613636363636  28.1944444444444 36  27.5 36  L 2.5 36  C 1.80555555555556 36  1.21527777777778 35.7613636363636  0.729166666666667 35.2840909090909  C 0.243055555555556 34.8068181818182  0 34.2272727272727  0 33.5454545454545  L 0 18.8181818181818  C 0 18.1363636363636  0.243055555555556 17.5568181818182  0.729166666666667 17.0795454545455  C 1.21527777777778 16.6022727272727  1.80555555555556 16.3636363636364  2.5 16.3636363636364  L 3.33333333333333 16.3636363636364  L 3.33333333333333 11.4545454545455  C 3.33333333333333 8.31818181818181  4.47916666666667 5.625  6.77083333333333 3.375  C 9.0625 1.125  11.8055555555556 0  15 0  C 18.1944444444444 0  20.9375 1.125  23.2291666666667 3.375  C 25.5208333333333 5.625  26.6666666666667 8.31818181818181  26.6666666666667 11.4545454545455  L 26.6666666666667 16.3636363636364  L 27.5 16.3636363636364  C 28.1944444444444 16.3636363636364  28.7847222222222 16.6022727272727  29.2708333333333 17.0795454545455  Z " fill-rule="nonzero" fill="#aaaaaa" stroke="none" transform="matrix(1 0 0 1 976 7 )" />
  </g>
</svg>