<?xml version="1.0" encoding="utf-8"?>
<svg version="1.1" xmlns:xlink="http://www.w3.org/1999/xlink" width="50px" height="50px" xmlns="http://www.w3.org/2000/svg">
  <g transform="matrix(1 0 0 1 -959 -1419 )">
    <path d="M 28.9713541666667 39.84375  C 29.6006944444444 39.84375  29.9153645833333 39.3120659722222  29.9153645833333 38.2486979166667  L 29.9153645833333 33.1380208333333  C 29.9153645833333 32.0529513888889  29.6006944444444 31.5104166666667  28.9713541666667 31.5104166666667  C 28.6024305555556 31.5104166666667  28.2443576388889 31.6840277777778  27.8971354166667 32.03125  L 27.8971354166667 39.3229166666667  C 28.2443576388889 39.6701388888889  28.6024305555556 39.84375  28.9713541666667 39.84375  Z M 35.9049479166667 33.1705729166667  L 35.9049479166667 34.27734375  L 38.0533854166667 34.27734375  L 38.0533854166667 33.1705729166667  C 38.0533854166667 32.0638020833333  37.6953125 31.5104166666667  36.9791666666667 31.5104166666667  C 36.2630208333333 31.5104166666667  35.9049479166667 32.0638020833333  35.9049479166667 33.1705729166667  Z M 9.765625 25.6184895833333  L 17.3177083333333 25.6184895833333  L 17.3177083333333 27.8971354166667  L 15 27.8971354166667  L 15 41.6666666666667  L 13 41.6666666666667  L 13 27.8971354166667  L 9.765625 27.8971354166667  L 9.765625 25.6184895833333  Z M 21.6796875 29.7200520833333  L 24 29.7200520833333  L 24 41.6666666666667  L 21.6796875 41.6666666666667  L 21.6796875 40.3645833333333  C 20.8333333333333 41.3411458333333  20.0086805555556 41.8294270833333  19.2057291666667 41.8294270833333  C 18.4895833333333 41.8294270833333  18.0338541666667 41.5256076388889  17.8385416666667 40.91796875  C 17.7083333333333 40.5490451388889  17.6432291666667 39.9631076388889  17.6432291666667 39.16015625  L 17.6432291666667 29.7200520833333  L 19.7916666666667 29.7200520833333  L 19.7916666666667 38.5091145833333  C 19.7916666666667 39.0299479166667  19.8025173611111 39.3120659722222  19.82421875 39.35546875  C 19.8459201388889 39.6809895833333  20.0086805555556 39.84375  20.3125 39.84375  C 20.7465277777778 39.84375  21.2022569444444 39.5073784722222  21.6796875 38.8346354166667  L 21.6796875 29.7200520833333  Z M 31.8359375 30.9244791666667  C 31.9878472222222 31.3802083333333  32.0638020833333 32.1831597222222  32.0638020833333 33.3333333333333  L 32.0638020833333 38.0859375  C 32.0638020833333 39.2144097222222  31.9878472222222 40.0065104166667  31.8359375 40.4622395833333  C 31.5755208333333 41.3736979166667  31.0004340277778 41.8294270833333  30.1106770833333 41.8294270833333  C 29.3511284722222 41.8294270833333  28.61328125 41.3845486111111  27.8971354166667 40.4947916666667  L 27.8971354166667 41.6666666666667  L 25 41.6666666666667  L 25 25.6184895833333  L 27.8971354166667 25.6184895833333  L 27.8971354166667 30.859375  C 28.5915798611111 29.9913194444444  29.3294270833333 29.5572916666667  30.1106770833333 29.5572916666667  C 31.0004340277778 29.5572916666667  31.5755208333333 30.0130208333333  31.8359375 30.9244791666667  Z M 38.0208333333333 37.5325520833333  L 40.234375 37.5325520833333  L 40.234375 37.8255208333333  C 40.234375 38.4548611111111  40.2126736111111 38.9214409722222  40.1692708333333 39.2252604166667  C 40.1041666666667 39.7026909722222  39.94140625 40.13671875  39.6809895833333 40.52734375  C 39.0950520833333 41.3953993055556  38.2269965277778 41.8294270833333  37.0768229166667 41.8294270833333  C 35.9483506944445 41.8294270833333  35.0694444444445 41.4171006944444  34.4401041666667 40.5924479166667  C 33.984375 40.0065104166667  33.7565104166667 39.0733506944444  33.7565104166667 37.79296875  L 33.7565104166667 33.59375  C 33.7565104166667 32.3133680555556  33.9735243055556 31.3802083333333  34.4075520833333 30.7942708333333  C 35.0368923611111 29.9696180555556  35.9049479166667 29.5572916666667  37.01171875 29.5572916666667  C 38.1184895833333 29.5572916666667  38.96484375 29.9696180555556  39.55078125 30.7942708333333  C 40.0065104166667 31.4236111111111  40.234375 32.3567708333333  40.234375 33.59375  L 40.234375 36.0677083333333  L 35.9049479166667 36.0677083333333  L 35.9049479166667 38.18359375  C 35.9049479166667 39.2903645833333  36.2738715277778 39.84375  37.01171875 39.84375  C 37.5325520833333 39.84375  37.8580729166667 39.5616319444444  37.98828125 38.9973958333333  C 37.98828125 38.9756944444444  37.9937065972222 38.8997395833333  38.0045572916667 38.76953125  C 38.0154079861111 38.6393229166667  38.0208333333333 38.4602864583333  38.0208333333333 38.232421875  L 38.0208333333333 37.5325520833333  Z M 24.51171875 9.01692708333333  C 25.2061631944444 9.01692708333333  25.5533854166667 9.58116319444444  25.5533854166667 10.7096354166667  L 25.5533854166667 15.7877604166667  C 25.5533854166667 16.89453125  25.2061631944444 17.4479166666667  24.51171875 17.4479166666667  C 23.8172743055556 17.4479166666667  23.4700520833333 16.89453125  23.4700520833333 15.7877604166667  L 23.4700520833333 10.7096354166667  C 23.4700520833333 9.58116319444444  23.8172743055556 9.01692708333333  24.51171875 9.01692708333333  Z M 42.2526041666667 42.3828125  C 42.6866319444445 40.5598958333333  42.9036458333333 37.7387152777778  42.9036458333333 33.9192708333333  C 42.9036458333333 30.078125  42.6974826388889 27.2569444444444  42.28515625 25.4557291666667  C 42.0681423611111 24.5008680555556  41.6015625 23.7033420138889  40.8854166666667 23.0631510416667  C 40.1692708333333 22.4229600694444  39.3446180555556 22.0486111111111  38.4114583333333 21.9401041666667  C 35.4600694444445 21.6145833333333  30.9895833333333 21.4518229166667  25 21.4518229166667  C 19.0321180555556 21.4518229166667  14.5724826388889 21.6145833333333  11.62109375 21.9401041666667  C 10.6662326388889 22.0486111111111  9.83615451388889 22.4229600694444  9.130859375 23.0631510416667  C 8.42556423611111 23.7033420138889  7.96440972222222 24.5008680555556  7.74739583333333 25.4557291666667  C 7.31336805555556 27.34375  7.09635416666667 30.1649305555556  7.09635416666667 33.9192708333333  C 7.09635416666667 37.7387152777778  7.31336805555556 40.5598958333333  7.74739583333333 42.3828125  C 7.96440972222222 43.3159722222222  8.42556423611111 44.1080729166667  9.130859375 44.7591145833333  C 9.83615451388889 45.41015625  10.6553819444444 45.7899305555556  11.5885416666667 45.8984375  C 14.5616319444444 46.2239583333333  19.0321180555556 46.38671875  25 46.38671875  C 30.9678819444444 46.38671875  35.4383680555556 46.2239583333333  38.4114583333333 45.8984375  C 39.3446180555556 45.7899305555556  40.1638454861111 45.41015625  40.869140625 44.7591145833333  C 41.5744357638889 44.1080729166667  42.0355902777778 43.3159722222222  42.2526041666667 42.3828125  Z M 18.3268229166667 19.2708333333333  L 18.3268229166667 12.7278645833333  L 21.2565104166667 3.09244791666667  L 18.8151041666667 3.09244791666667  L 17.1549479166667 9.44010416666667  L 15.4296875 3.09244791666667  L 12.890625 3.09244791666667  C 13.0425347222222 3.59157986111111  13.2921006944444 4.34027777777777  13.6393229166667 5.33854166666667  L 14.4205729166667 7.58463541666667  C 15.1801215277778 9.81987847222222  15.6792534722222 11.5342881944444  15.91796875 12.7278645833333  L 15.91796875 19.2708333333333  L 18.3268229166667 19.2708333333333  Z M 27.05078125 18.1966145833333  C 27.5065104166667 17.6106770833333  27.734375 16.6666666666667  27.734375 15.3645833333333  L 27.734375 11.1328125  C 27.734375 9.87413194444444  27.5065104166667 8.93012152777777  27.05078125 8.30078125  C 26.4214409722222 7.47612847222222  25.5750868055556 7.06380208333333  24.51171875 7.06380208333333  C 23.4049479166667 7.06380208333333  22.55859375 7.47612847222222  21.97265625 8.30078125  C 21.5169270833333 8.93012152777777  21.2890625 9.87413194444444  21.2890625 11.1328125  L 21.2890625 15.3645833333333  C 21.2890625 16.6232638888889  21.5169270833333 17.5672743055556  21.97265625 18.1966145833333  C 22.55859375 19.0212673611111  23.4049479166667 19.43359375  24.51171875 19.43359375  C 25.5750868055556 19.43359375  26.4214409722222 19.0212673611111  27.05078125 18.1966145833333  Z M 33.6263020833333 17.96875  L 33.6263020833333 19.2708333333333  L 35 19.2708333333333  L 35 7.2265625  L 33.6263020833333 7.2265625  L 33.6263020833333 16.4388020833333  C 33.1488715277778 17.1115451388889  32.6931423611111 17.4479166666667  32.2591145833333 17.4479166666667  C 31.93359375 17.4479166666667  31.7599826388889 17.2743055555556  31.73828125 16.9270833333333  C 31.7165798611111 16.8836805555556  31.7057291666667 16.6015625  31.7057291666667 16.0807291666667  L 31.7057291666667 7.2265625  L 29.5247395833333 7.2265625  L 29.5247395833333 16.7643229166667  C 29.5247395833333 17.5672743055556  29.58984375 18.1640625  29.7200520833333 18.5546875  C 29.9587673611111 19.140625  30.4253472222222 19.43359375  31.1197916666667 19.43359375  C 31.9010416666667 19.43359375  32.7365451388889 18.9453125  33.6263020833333 17.96875  Z M 47.2493489583333 2.75065104166667  C 49.0831163194444 4.58441840277777  50 6.79253472222222  50 9.375  L 50 40.625  C 50 43.2074652777778  49.0831163194444 45.4155815972222  47.2493489583333 47.2493489583333  C 45.4155815972222 49.0831163194444  43.2074652777778 50  40.625 50  L 9.375 50  C 6.79253472222222 50  4.58441840277778 49.0831163194444  2.75065104166667 47.2493489583333  C 0.916883680555555 45.4155815972222  0 43.2074652777778  0 40.625  L 0 9.375  C 0 6.79253472222222  0.916883680555555 4.58441840277777  2.75065104166667 2.75065104166667  C 4.58441840277778 0.916883680555552  6.79253472222222 0  9.375 0  L 40.625 0  C 43.2074652777778 0  45.4155815972222 0.916883680555552  47.2493489583333 2.75065104166667  Z " fill-rule="nonzero" fill="#000000" stroke="none" transform="matrix(1 0 0 1 959 1419 )" />
  </g>
</svg>