<?xml version="1.0" encoding="utf-8"?>
<svg version="1.1" xmlns:xlink="http://www.w3.org/1999/xlink" width="50px" height="33px" xmlns="http://www.w3.org/2000/svg">
  <g transform="matrix(1 0 0 1 -269 -290 )">
    <path d="M 42.0355902777778 14.544921875  L 42.8602430555556 18.51953125  L 39.8654513888889 18.51953125  C 40.0679976851852 17.9895833333333  40.5454282407407 16.7076822916667  41.2977430555556 14.673828125  L 41.3628472222222 14.48046875  C 41.4207175925926 14.3372395833333  41.4930555555556 14.1510416666667  41.5798611111111 13.921875  C 41.6666666666667 13.6927083333333  41.7317708333333 13.5065104166667  41.7751736111111 13.36328125  L 42.0355902777778 14.544921875  Z M 2.77777777777778 9.904296875  C 7.27719907407408 11.0358072916667  10.1924189814815 13.4420572916667  11.5234375 17.123046875  L 10.2647569444444 10.78515625  C 10.1056134259259 10.01171875  9.5630787037037 9.625  8.63715277777778 9.625  L 2.82118055555556 9.625  L 2.77777777777778 9.904296875  Z M 19.2274305555556 9.625  L 15.4079861111111 9.625  L 11.8923611111111 19.03515625  L 11.5234375 17.123046875  C 11.1472800925926 16.1204427083333  10.5324074074074 15.1930338541667  9.67881944444444 14.3408203125  C 8.82523148148148 13.4886067708333  7.87760416666667 12.8548177083333  6.8359375 12.439453125  L 9.765625 23.396484375  L 13.5633680555556 23.396484375  L 19.2274305555556 9.625  Z M 20.6814236111111 9.625  L 18.4244791666667 23.41796875  L 22.0269097222222 23.41796875  L 24.2838541666667 9.625  L 20.6814236111111 9.625  Z M 34.5920138888889 12.955078125  L 35.0911458333333 9.96875  C 34.0928819444445 9.58203125  33.0150462962963 9.388671875  31.8576388888889 9.388671875  C 30.078125 9.388671875  28.6241319444444 9.81119791666666  27.4956597222222 10.65625  C 26.3671875 11.5013020833333  25.7957175925926 12.5970052083333  25.78125 13.943359375  C 25.7667824074074 15.404296875  26.8156828703704 16.650390625  28.9279513888889 17.681640625  C 29.6223958333333 18.0110677083333  30.1070601851852 18.3046875  30.3819444444444 18.5625  C 30.6568287037037 18.8203125  30.7942708333333 19.099609375  30.7942708333333 19.400390625  C 30.7942708333333 19.830078125  30.5772569444444 20.1595052083333  30.1432291666667 20.388671875  C 29.7092013888889 20.6178385416667  29.2100694444444 20.732421875  28.6458333333333 20.732421875  C 27.4016203703704 20.732421875  26.2731481481482 20.49609375  25.2604166666667 20.0234375  L 24.7829861111111 19.787109375  L 24.2838541666667 22.880859375  C 25.3544560185185 23.3678385416667  26.6927083333333 23.611328125  28.2986111111111 23.611328125  C 30.1793981481482 23.6256510416667  31.6876446759259 23.203125  32.8233506944444 22.34375  C 33.959056712963 21.484375  34.5413773148148 20.3385416666667  34.5703125 18.90625  C 34.5703125 17.3880208333333  33.5575810185185 16.1419270833333  31.5321180555556 15.16796875  C 30.8232060185185 14.8098958333333  30.3096064814815 14.5091145833333  29.9913194444444 14.265625  C 29.6730324074074 14.0221354166667  29.5138888888889 13.75  29.5138888888889 13.44921875  C 29.5138888888889 13.1341145833333  29.6911168981482 12.8583984375  30.0455729166667 12.6220703125  C 30.4000289351852 12.3857421875  30.9100115740741 12.267578125  31.5755208333333 12.267578125  C 32.5882523148148 12.2532552083333  33.4852430555556 12.4251302083333  34.2664930555556 12.783203125  L 34.5920138888889 12.955078125  Z M 47.2222222222222 23.41796875  L 44.3142361111111 9.625  L 41.5364583333333 9.625  C 40.5960648148148 9.625  39.966724537037 10.01171875  39.6484375 10.78515625  L 34.3098958333333 23.41796875  L 38.0859375 23.41796875  L 38.8454861111111 21.35546875  L 43.4461805555556 21.35546875  C 43.5185185185185 21.6705729166667  43.6631944444445 22.3580729166667  43.8802083333333 23.41796875  L 47.2222222222222 23.41796875  Z M 49.1753472222222 0.816406250000001  C 49.7251157407407 1.36067708333333  50 2.00520833333333  50 2.75  L 50 30.25  C 50 30.9947916666667  49.7251157407407 31.6393229166667  49.1753472222222 32.18359375  C 48.6255787037037 32.7278645833333  47.974537037037 33  47.2222222222222 33  L 2.77777777777778 33  C 2.02546296296296 33  1.3744212962963 32.7278645833333  0.824652777777778 32.18359375  C 0.274884259259259 31.6393229166667  0 30.9947916666667  0 30.25  L 0 2.75  C 0 2.00520833333333  0.274884259259259 1.36067708333333  0.824652777777778 0.816406250000001  C 1.3744212962963 0.272135416666663  2.02546296296296 0  2.77777777777778 0  L 47.2222222222222 0  C 47.974537037037 0  48.6255787037037 0.272135416666663  49.1753472222222 0.816406250000001  Z " fill-rule="nonzero" fill="#aaaaaa" stroke="none" transform="matrix(1 0 0 1 269 290 )" />
  </g>
</svg>