<?xml version="1.0" encoding="utf-8"?>
<svg version="1.1" xmlns:xlink="http://www.w3.org/1999/xlink" width="50px" height="33px" xmlns="http://www.w3.org/2000/svg">
  <g transform="matrix(1 0 0 1 -331 -290 )">
    <path d="M 20.4318576388889 10.26953125  C 21.119068287037 8.00651041666666  22.4030671296296 6.10872395833333  24.2838541666667 4.576171875  C 22.4320023148148 3.35872395833333  20.3993055555556 2.75  18.1857638888889 2.75  C 16.6956018518519 2.75  15.2669270833333 3.0400390625  13.8997395833333 3.6201171875  C 12.5325520833333 4.2001953125  11.3570601851852 4.97721354166666  10.3732638888889 5.951171875  C 9.38946759259259 6.92513020833333  8.60460069444444 8.08528645833333  8.01866319444444 9.431640625  C 7.43272569444444 10.7779947916667  7.13975694444444 12.1888020833333  7.13975694444444 13.6640625  C 7.13975694444444 15.1536458333333  7.43272569444444 16.5716145833333  8.01866319444444 17.91796875  C 8.60460069444444 19.2643229166667  9.38946759259259 20.4244791666667  10.3732638888889 21.3984375  C 11.3570601851852 22.3723958333333  12.5289351851852 23.1494140625  13.8888888888889 23.7294921875  C 15.2488425925926 24.3095703125  16.6811342592593 24.599609375  18.1857638888889 24.599609375  C 20.3993055555556 24.599609375  22.4320023148148 23.9908854166667  24.2838541666667 22.7734375  C 22.388599537037 21.2408854166667  21.1009837962963 19.3395182291667  20.4210069444444 17.0693359375  C 19.7410300925926 14.7991536458333  19.7446469907407 12.5325520833333  20.4318576388889 10.26953125  Z M 28.7326388888889 10.4521484375  C 28.0671296296296 8.29654947916666  26.8229166666667 6.509765625  25 5.091796875  C 23.1770833333333 6.509765625  21.9328703703704 8.29654947916666  21.2673611111111 10.4521484375  C 20.6018518518519 12.6077473958333  20.5982349537037 14.759765625  21.2565104166667 16.908203125  C 21.9147858796296 19.056640625  23.1626157407407 20.83984375  25 22.2578125  C 26.8373842592593 20.83984375  28.0852141203704 19.056640625  28.7434895833333 16.908203125  C 29.4017650462963 14.759765625  29.3981481481482 12.6077473958333  28.7326388888889 10.4521484375  Z M 31.8142361111111 2.75  C 29.6006944444444 2.75  27.5679976851852 3.35872395833333  25.7161458333333 4.576171875  C 27.5969328703704 6.10872395833333  28.880931712963 8.01009114583333  29.5681423611111 10.2802734375  C 30.2553530092593 12.5504557291667  30.2589699074074 14.8206380208333  29.5789930555556 17.0908203125  C 28.8990162037037 19.3610026041667  27.611400462963 21.2552083333333  25.7161458333333 22.7734375  C 27.5679976851852 23.9908854166667  29.6006944444444 24.599609375  31.8142361111111 24.599609375  C 33.3188657407407 24.599609375  34.7511574074074 24.3095703125  36.1111111111111 23.7294921875  C 37.4710648148148 23.1494140625  38.6429398148148 22.3723958333333  39.6267361111111 21.3984375  C 40.6105324074074 20.4244791666667  41.3953993055556 19.2643229166667  41.9813368055556 17.91796875  C 42.5672743055556 16.5716145833333  42.8602430555556 15.1536458333333  42.8602430555556 13.6640625  C 42.8602430555556 12.1888020833333  42.5672743055556 10.7779947916667  41.9813368055556 9.431640625  C 41.3953993055556 8.08528645833333  40.6105324074074 6.92513020833333  39.6267361111111 5.951171875  C 38.6429398148148 4.97721354166666  37.4674479166667 4.2001953125  36.1002604166667 3.6201171875  C 34.7330729166667 3.0400390625  33.3043981481482 2.75  31.8142361111111 2.75  Z M 41.796875 20.453125  L 41.796875 20.087890625  L 41.9487847222222 20.087890625  L 41.9487847222222 20.0234375  L 41.5798611111111 20.0234375  L 41.5798611111111 20.087890625  L 41.7317708333333 20.087890625  L 41.7317708333333 20.453125  L 41.796875 20.453125  Z M 42.4262152777778 20.130859375  L 42.4262152777778 20.453125  L 42.5130208333333 20.453125  L 42.5130208333333 20.0234375  L 42.4045138888889 20.0234375  L 42.2743055555556 20.302734375  L 42.1440972222222 20.0234375  L 42.0355902777778 20.0234375  L 42.0355902777778 20.453125  L 42.1006944444444 20.453125  L 42.1006944444444 20.130859375  L 42.2309027777778 20.41015625  L 42.3177083333333 20.41015625  L 42.4262152777778 20.130859375  Z M 42.2526041666667 29.884765625  L 42.2526041666667 29.90625  L 42.2526041666667 29.94921875  L 42.2092013888889 29.94921875  L 42.1440972222222 29.94921875  L 42.1440972222222 29.884765625  L 42.2092013888889 29.884765625  L 42.2526041666667 29.884765625  Z M 42.1657986111111 29.9921875  L 42.2526041666667 30.099609375  L 42.3177083333333 30.099609375  L 42.2309027777778 29.9921875  L 42.2743055555556 29.9921875  L 42.2960069444444 29.970703125  C 42.310474537037 29.9563802083333  42.3177083333333 29.9348958333333  42.3177083333333 29.90625  C 42.3177083333333 29.8776041666667  42.310474537037 29.8561197916667  42.2960069444444 29.841796875  L 42.2743055555556 29.8203125  L 42.2092013888889 29.8203125  L 42.0789930555556 29.8203125  L 42.0789930555556 30.099609375  L 42.1440972222222 30.099609375  L 42.1440972222222 29.9921875  L 42.1657986111111 29.9921875  Z M 15.1041666666667 29.3046875  C 14.9450231481482 29.1328125  14.8654513888889 28.9108072916667  14.8654513888889 28.638671875  C 14.8654513888889 28.3665364583333  14.9450231481482 28.14453125  15.1041666666667 27.97265625  C 15.2633101851852 27.80078125  15.4803240740741 27.71484375  15.7552083333333 27.71484375  C 16.015625 27.71484375  16.2254050925926 27.8043619791667  16.3845486111111 27.9833984375  C 16.5436921296296 28.1624348958333  16.6232638888889 28.380859375  16.6232638888889 28.638671875  C 16.6232638888889 28.9108072916667  16.5436921296296 29.1328125  16.3845486111111 29.3046875  C 16.2254050925926 29.4765625  16.015625 29.5625  15.7552083333333 29.5625  C 15.4803240740741 29.5625  15.2633101851852 29.4765625  15.1041666666667 29.3046875  Z M 24.3706597222222 28.380859375  C 24.4429976851852 27.9225260416667  24.6961805555556 27.693359375  25.1302083333333 27.693359375  C 25.5642361111111 27.693359375  25.8174189814815 27.9225260416667  25.8897569444444 28.380859375  L 24.3706597222222 28.380859375  Z M 33.0946180555556 29.3046875  C 32.935474537037 29.1328125  32.8559027777778 28.9108072916667  32.8559027777778 28.638671875  C 32.8559027777778 28.3665364583333  32.935474537037 28.14453125  33.0946180555556 27.97265625  C 33.2537615740741 27.80078125  33.4635416666667 27.71484375  33.7239583333333 27.71484375  C 33.984375 27.71484375  34.1977719907407 27.8043619791667  34.3641493055556 27.9833984375  C 34.5305266203704 28.1624348958333  34.6137152777778 28.380859375  34.6137152777778 28.638671875  C 34.6137152777778 28.9108072916667  34.5341435185185 29.1328125  34.375 29.3046875  C 34.2158564814815 29.4765625  33.9988425925926 29.5625  33.7239583333333 29.5625  C 33.4635416666667 29.5625  33.2537615740741 29.4765625  33.0946180555556 29.3046875  Z M 39.0082465277778 29.2939453125  C 38.841869212963 29.1149088541667  38.7586805555556 28.896484375  38.7586805555556 28.638671875  C 38.7586805555556 28.380859375  38.841869212963 28.1624348958333  39.0082465277778 27.9833984375  C 39.1746238425926 27.8043619791667  39.3880208333333 27.71484375  39.6484375 27.71484375  C 39.9088541666667 27.71484375  40.1222511574074 27.8043619791667  40.2886284722222 27.9833984375  C 40.455005787037 28.1624348958333  40.5381944444444 28.380859375  40.5381944444444 28.638671875  C 40.5381944444444 28.9108072916667  40.455005787037 29.1328125  40.2886284722222 29.3046875  C 40.1222511574074 29.4765625  39.9088541666667 29.5625  39.6484375 29.5625  C 39.3880208333333 29.5625  39.1746238425926 29.4729817708333  39.0082465277778 29.2939453125  Z M 42.2743055555556 30.1640625  C 42.259837962963 30.1783854166667  42.2309027777778 30.185546875  42.1875 30.185546875  C 42.1585648148148 30.185546875  42.1296296296296 30.1783854166667  42.1006944444444 30.1640625  C 42.0862268518519 30.1640625  42.064525462963 30.1497395833333  42.0355902777778 30.12109375  C 42.0066550925926 30.0924479166667  41.9921875 30.0709635416667  41.9921875 30.056640625  C 41.9777199074074 30.0279947916667  41.9704861111111 29.9993489583333  41.9704861111111 29.970703125  C 41.9704861111111 29.927734375  41.9777199074074 29.8990885416667  41.9921875 29.884765625  C 41.9921875 29.8561197916667  42.0066550925926 29.8274739583333  42.0355902777778 29.798828125  L 42.0572916666667 29.77734375  C 42.0862268518519 29.77734375  42.1006944444444 29.7701822916667  42.1006944444444 29.755859375  C 42.1296296296296 29.7415364583333  42.1585648148148 29.734375  42.1875 29.734375  C 42.2309027777778 29.734375  42.259837962963 29.7415364583333  42.2743055555556 29.755859375  L 42.3611111111111 29.798828125  L 42.4045138888889 29.884765625  L 42.4045138888889 29.90625  C 42.4189814814815 29.9348958333333  42.4262152777778 29.9563802083333  42.4262152777778 29.970703125  L 42.4045138888889 29.9921875  L 42.4045138888889 30.056640625  C 42.4045138888889 30.056640625  42.3972800925926 30.0638020833333  42.3828125 30.078125  L 42.3611111111111 30.12109375  C 42.3321759259259 30.1497395833333  42.3032407407407 30.1640625  42.2743055555556 30.1640625  Z M 12.9991319444444 28.48828125  L 12.9991319444444 30.099609375  L 13.6501736111111 30.099609375  L 13.6501736111111 28.2734375  C 13.6501736111111 27.9296875  13.5452835648148 27.6539713541667  13.3355034722222 27.4462890625  C 13.1257233796296 27.2386067708333  12.8399884259259 27.1276041666667  12.4782986111111 27.11328125  C 12.0153356481481 27.11328125  11.6753472222222 27.28515625  11.4583333333333 27.62890625  C 11.255787037037 27.28515625  10.9302662037037 27.11328125  10.4817708333333 27.11328125  C 10.1345486111111 27.11328125  9.85243055555556 27.2565104166667  9.63541666666667 27.54296875  L 9.63541666666667 27.19921875  L 8.984375 27.19921875  L 8.984375 30.099609375  L 9.63541666666667 30.099609375  L 9.63541666666667 28.48828125  C 9.63541666666667 27.97265625  9.87413194444445 27.71484375  10.3515625 27.71484375  C 10.7855902777778 27.71484375  11.0026041666667 27.97265625  11.0026041666667 28.48828125  L 11.0026041666667 30.099609375  L 11.6319444444444 30.099609375  L 11.6319444444444 28.48828125  C 11.6319444444444 27.97265625  11.8706597222222 27.71484375  12.3480902777778 27.71484375  C 12.7821180555556 27.71484375  12.9991319444444 27.97265625  12.9991319444444 28.48828125  Z M 16.6015625 29.734375  L 16.6015625 30.099609375  L 17.2309027777778 30.099609375  L 17.2309027777778 28.638671875  L 17.2309027777778 27.19921875  L 16.6015625 27.19921875  L 16.6015625 27.54296875  C 16.3556134259259 27.2565104166667  16.0445601851852 27.11328125  15.6684027777778 27.11328125  C 15.2488425925926 27.11328125  14.9016203703704 27.2565104166667  14.6267361111111 27.54296875  C 14.3518518518519 27.8294270833333  14.2144097222222 28.1946614583333  14.2144097222222 28.638671875  C 14.2144097222222 29.0826822916667  14.3518518518519 29.4479166666667  14.6267361111111 29.734375  C 14.9016203703704 30.0208333333333  15.2488425925926 30.1640625  15.6684027777778 30.1640625  C 16.0734953703704 30.1640625  16.3845486111111 30.0208333333333  16.6015625 29.734375  Z M 20.1063368055556 29.90625  C 20.3450520833333 29.734375  20.4644097222222 29.5052083333333  20.4644097222222 29.21875  C 20.4644097222222 28.7317708333333  20.1244212962963 28.4453125  19.4444444444444 28.359375  L 19.140625 28.31640625  C 18.8078703703704 28.2591145833333  18.6414930555556 28.1588541666667  18.6414930555556 28.015625  C 18.6414930555556 27.80078125  18.822337962963 27.693359375  19.1840277777778 27.693359375  C 19.5167824074074 27.693359375  19.8278356481482 27.7721354166667  20.1171875 27.9296875  L 20.3776041666667 27.4140625  C 20.0593171296296 27.2135416666667  19.6614583333333 27.11328125  19.1840277777778 27.11328125  C 18.8078703703704 27.11328125  18.5112847222222 27.19921875  18.2942708333333 27.37109375  C 18.0772569444444 27.54296875  17.96875 27.7721354166667  17.96875 28.05859375  C 17.96875 28.53125  18.3087384259259 28.810546875  18.9887152777778 28.896484375  L 19.2708333333333 28.939453125  C 19.6180555555556 28.9967447916667  19.7916666666667 29.0970052083333  19.7916666666667 29.240234375  C 19.7916666666667 29.4837239583333  19.5674189814815 29.60546875  19.1189236111111 29.60546875  C 18.7572337962963 29.60546875  18.431712962963 29.5052083333333  18.1423611111111 29.3046875  L 17.8602430555556 29.798828125  C 18.2219328703704 30.0423177083333  18.6414930555556 30.1640625  19.1189236111111 30.1640625  C 19.5384837962963 30.1640625  19.8676215277778 30.078125  20.1063368055556 29.90625  Z M 22.5043402777778 30.1640625  C 22.8081597222222 30.1640625  23.0685763888889 30.0924479166667  23.2855902777778 29.94921875  L 23.1119791666667 29.412109375  C 22.923900462963 29.5123697916667  22.7358217592593 29.5625  22.5477430555556 29.5625  C 22.2728587962963 29.5625  22.1354166666667 29.4049479166667  22.1354166666667 29.08984375  L 22.1354166666667 27.779296875  L 23.1770833333333 27.779296875  L 23.1770833333333 27.19921875  L 22.1354166666667 27.19921875  L 22.1354166666667 26.318359375  L 21.484375 26.318359375  L 21.484375 27.19921875  L 20.8767361111111 27.19921875  L 20.8767361111111 27.779296875  L 21.484375 27.779296875  L 21.484375 29.08984375  C 21.484375 29.8059895833333  21.8243634259259 30.1640625  22.5043402777778 30.1640625  Z M 26.1501736111111 27.5322265625  C 25.8897569444444 27.2529296875  25.5570023148148 27.11328125  25.1519097222222 27.11328125  C 24.732349537037 27.11328125  24.3851273148148 27.2565104166667  24.1102430555556 27.54296875  C 23.8353587962963 27.8294270833333  23.6979166666667 28.1946614583333  23.6979166666667 28.638671875  C 23.6979166666667 29.0970052083333  23.8389756944444 29.4658203125  24.12109375 29.7451171875  C 24.4032118055556 30.0244140625  24.7612847222222 30.1640625  25.1953125 30.1640625  C 25.6727430555556 30.1640625  26.0706018518519 30.0279947916667  26.3888888888889 29.755859375  L 26.0850694444444 29.283203125  C 25.8246527777778 29.498046875  25.5425347222222 29.60546875  25.2387152777778 29.60546875  C 24.7468171296296 29.60546875  24.4502314814815 29.369140625  24.3489583333333 28.896484375  L 26.5407986111111 28.896484375  L 26.5407986111111 28.638671875  C 26.5407986111111 28.1803385416667  26.4105902777778 27.8115234375  26.1501736111111 27.5322265625  Z M 29.0581597222222 27.19921875  C 28.9279513888889 27.1419270833333  28.7760416666667 27.11328125  28.6024305555556 27.11328125  C 28.2696759259259 27.11328125  28.0164930555556 27.2565104166667  27.8428819444444 27.54296875  L 27.8428819444444 27.19921875  L 27.1918402777778 27.19921875  L 27.1918402777778 30.099609375  L 27.8428819444444 30.099609375  L 27.8428819444444 28.466796875  C 27.8428819444444 27.9654947916667  28.052662037037 27.71484375  28.4722222222222 27.71484375  C 28.6168981481482 27.71484375  28.7471064814815 27.7434895833333  28.8628472222222 27.80078125  L 29.0581597222222 27.19921875  Z M 29.6766493055556 27.54296875  C 29.39453125 27.8294270833333  29.2534722222222 28.1946614583333  29.2534722222222 28.638671875  C 29.2534722222222 29.0826822916667  29.39453125 29.4479166666667  29.6766493055556 29.734375  C 29.9587673611111 30.0208333333333  30.3385416666667 30.1640625  30.8159722222222 30.1640625  C 31.2355324074074 30.1640625  31.5827546296296 30.0494791666667  31.8576388888889 29.8203125  L 31.5538194444444 29.3046875  C 31.2934027777778 29.4908854166667  31.0402199074074 29.5768229166667  30.7942708333333 29.5625  C 30.5338541666667 29.5625  30.3204571759259 29.4765625  30.1540798611111 29.3046875  C 29.9877025462963 29.1328125  29.9045138888889 28.9108072916667  29.9045138888889 28.638671875  C 29.9045138888889 28.3665364583333  29.9877025462963 28.14453125  30.1540798611111 27.97265625  C 30.3204571759259 27.80078125  30.5338541666667 27.71484375  30.7942708333333 27.71484375  C 31.0691550925926 27.71484375  31.322337962963 27.80078125  31.5538194444444 27.97265625  L 31.8576388888889 27.45703125  C 31.568287037037 27.2278645833333  31.2210648148148 27.11328125  30.8159722222222 27.11328125  C 30.3385416666667 27.11328125  29.9587673611111 27.2565104166667  29.6766493055556 27.54296875  Z M 34.5703125 29.734375  L 34.5703125 30.099609375  L 35.2213541666667 30.099609375  L 35.2213541666667 28.638671875  L 35.2213541666667 27.19921875  L 34.5703125 27.19921875  L 34.5703125 27.54296875  C 34.3532986111111 27.2565104166667  34.0494791666667 27.11328125  33.6588541666667 27.11328125  C 33.2392939814815 27.11328125  32.8884548611111 27.2565104166667  32.6063368055556 27.54296875  C 32.32421875 27.8294270833333  32.1831597222222 28.1946614583333  32.1831597222222 28.638671875  C 32.1831597222222 29.0826822916667  32.32421875 29.4479166666667  32.6063368055556 29.734375  C 32.8884548611111 30.0208333333333  33.2392939814815 30.1640625  33.6588541666667 30.1640625  C 34.0639467592593 30.1640625  34.3677662037037 30.0208333333333  34.5703125 29.734375  Z M 37.9123263888889 27.19921875  C 37.7965856481482 27.1419270833333  37.6446759259259 27.11328125  37.4565972222222 27.11328125  C 37.1238425925926 27.11328125  36.8706597222222 27.2565104166667  36.6970486111111 27.54296875  L 36.6970486111111 27.19921875  L 36.0677083333333 27.19921875  L 36.0677083333333 30.099609375  L 36.6970486111111 30.099609375  L 36.6970486111111 28.466796875  C 36.6970486111111 27.9654947916667  36.9068287037037 27.71484375  37.3263888888889 27.71484375  C 37.4710648148148 27.71484375  37.6012731481482 27.7434895833333  37.7170138888889 27.80078125  L 37.9123263888889 27.19921875  Z M 40.4947916666667 29.734375  L 40.4947916666667 30.099609375  L 41.1241319444444 30.099609375  L 41.1241319444444 28.638671875  L 41.1241319444444 26.017578125  L 40.4947916666667 26.017578125  L 40.4947916666667 27.54296875  C 40.2777777777778 27.2565104166667  39.966724537037 27.11328125  39.5616319444444 27.11328125  C 39.1565393518519 27.11328125  38.8129340277778 27.2600911458333  38.5308159722222 27.5537109375  C 38.2486979166667 27.8473307291667  38.1076388888889 28.208984375  38.1076388888889 28.638671875  C 38.1076388888889 29.068359375  38.2486979166667 29.4300130208333  38.5308159722222 29.7236328125  C 38.8129340277778 30.0172526041667  39.1565393518519 30.1640625  39.5616319444444 30.1640625  C 39.9811921296296 30.1640625  40.2922453703704 30.0208333333333  40.4947916666667 29.734375  Z M 42.2526041666667 29.6806640625  C 42.2236689814815 29.6735026041667  42.2019675925926 29.669921875  42.1875 29.669921875  L 42.1440972222222 29.69140625  L 42.0789930555556 29.69140625  C 42.0500578703704 29.7057291666667  42.0211226851852 29.7272135416667  41.9921875 29.755859375  C 41.9487847222222 29.7701822916667  41.9270833333333 29.798828125  41.9270833333333 29.841796875  C 41.9126157407407 29.8704427083333  41.9053819444444 29.9134114583333  41.9053819444444 29.970703125  C 41.9053819444444 30.013671875  41.9126157407407 30.0494791666667  41.9270833333333 30.078125  C 41.9270833333333 30.1067708333333  41.9487847222222 30.1354166666667  41.9921875 30.1640625  C 42.0211226851852 30.1927083333333  42.0500578703704 30.2141927083333  42.0789930555556 30.228515625  C 42.1079282407407 30.2428385416667  42.1440972222222 30.25  42.1875 30.25  C 42.2453703703704 30.25  42.2887731481482 30.2428385416667  42.3177083333333 30.228515625  C 42.3177083333333 30.2141927083333  42.3321759259259 30.1998697916667  42.3611111111111 30.185546875  L 42.4045138888889 30.1640625  C 42.4189814814815 30.1497395833333  42.4406828703704 30.12109375  42.4696180555556 30.078125  C 42.4840856481482 30.0494791666667  42.4913194444444 30.013671875  42.4913194444444 29.970703125  C 42.4913194444444 29.9134114583333  42.4840856481482 29.8704427083333  42.4696180555556 29.841796875  C 42.455150462963 29.8274739583333  42.4334490740741 29.798828125  42.4045138888889 29.755859375  C 42.4045138888889 29.7415364583333  42.3900462962963 29.7272135416667  42.3611111111111 29.712890625  L 42.3177083333333 29.69140625  C 42.3032407407407 29.69140625  42.2815393518519 29.6878255208333  42.2526041666667 29.6806640625  Z M 49.1753472222222 0.816406250000001  C 49.7251157407407 1.36067708333333  50 2.00520833333333  50 2.75  L 50 30.25  C 50 30.9947916666667  49.7251157407407 31.6393229166667  49.1753472222222 32.18359375  C 48.6255787037037 32.7278645833333  47.974537037037 33  47.2222222222222 33  L 2.77777777777778 33  C 2.02546296296296 33  1.3744212962963 32.7278645833333  0.824652777777778 32.18359375  C 0.274884259259259 31.6393229166667  0 30.9947916666667  0 30.25  L 0 2.75  C 0 2.00520833333333  0.274884259259259 1.36067708333333  0.824652777777778 0.816406250000001  C 1.3744212962963 0.272135416666663  2.02546296296296 0  2.77777777777778 0  L 47.2222222222222 0  C 47.974537037037 0  48.6255787037037 0.272135416666663  49.1753472222222 0.816406250000001  Z " fill-rule="nonzero" fill="#aaaaaa" stroke="none" transform="matrix(1 0 0 1 331 290 )" />
  </g>
</svg>