<?xml version="1.0" encoding="utf-8"?>
<svg version="1.1" xmlns:xlink="http://www.w3.org/1999/xlink" width="50px" height="33px" xmlns="http://www.w3.org/2000/svg">
  <g transform="matrix(1 0 0 1 -392 -290 )">
    <path d="M 3.53732638888889 9.58203125  L 2.58246527777778 11.90234375  L 4.51388888888889 11.90234375  L 3.53732638888889 9.58203125  Z M 12.6085069444444 23.203125  L 16.0590277777778 23.203125  L 17.6649305555556 21.505859375  L 16.1458333333333 19.80859375  L 12.6085069444444 19.80859375  L 12.6085069444444 20.861328125  L 15.6901041666667 20.861328125  L 15.6901041666667 22.04296875  L 12.6085069444444 22.04296875  L 12.6085069444444 23.203125  Z M 21.6362847222222 19.228515625  L 19.4878472222222 21.52734375  L 21.6362847222222 23.890625  L 21.6362847222222 19.228515625  Z M 24.8480902777778 21.291015625  C 25.4412615740741 21.291015625  25.7378472222222 21.033203125  25.7378472222222 20.517578125  C 25.7378472222222 20.044921875  25.4484953703704 19.80859375  24.8697916666667 19.80859375  L 23.046875 19.80859375  L 23.046875 21.291015625  L 24.8480902777778 21.291015625  Z M 31.0763888888889 21.119140625  C 31.6984953703704 21.119140625  32.0095486111111 20.8899739583333  32.0095486111111 20.431640625  C 32.0095486111111 20.0162760416667  31.7057291666667 19.80859375  31.0980902777778 19.80859375  L 29.3185763888889 19.80859375  L 29.3185763888889 21.119140625  L 31.0763888888889 21.119140625  Z M 25.0434027777778 11.0859375  C 25.6655092592593 11.0859375  25.9765625 10.8639322916667  25.9765625 10.419921875  C 25.9765625 10.0045572916667  25.6727430555556 9.796875  25.0651041666667 9.796875  L 23.2855902777778 9.796875  L 23.2855902777778 11.0859375  L 25.0434027777778 11.0859375  Z M 36.9140625 9.58203125  L 35.9375 11.90234375  L 37.8689236111111 11.90234375  L 36.9140625 9.58203125  Z M 12.8255208333333 8.572265625  L 15.1692708333333 8.572265625  L 15.1692708333333 14.39453125  L 13.7369791666667 14.39453125  L 13.7369791666667 9.83984375  L 11.6970486111111 14.39453125  L 10.4600694444444 14.39453125  L 8.42013888888889 9.83984375  L 8.42013888888889 14.39453125  L 5.55555555555556 14.39453125  L 5.01302083333333 13.10546875  L 2.08333333333333 13.10546875  L 1.54079861111111 14.39453125  L 0.0217013888888889 14.39453125  L 2.5390625 8.572265625  L 4.62239583333333 8.572265625  L 7.00954861111111 14.09375  L 7.00954861111111 8.572265625  L 9.30989583333333 8.572265625  L 11.1545138888889 12.525390625  L 12.8255208333333 8.572265625  Z M 24.8697916666667 18.60546875  C 26.4467592592593 18.60546875  27.2352430555556 19.2428385416667  27.2352430555556 20.517578125  C 27.2352430555556 20.8040364583333  27.1954571759259 21.0546875  27.1158854166667 21.26953125  C 27.0363136574074 21.484375  26.9350405092593 21.6634114583333  26.8120659722222 21.806640625  C 26.6890914351852 21.9498697916667  26.5263310185185 22.0680338541667  26.3237847222222 22.1611328125  C 26.1212384259259 22.2542317708333  25.9331597222222 22.3258463541667  25.7595486111111 22.3759765625  C 25.5859375 22.4261067708333  25.3580729166667 22.4583333333333  25.0759548611111 22.47265625  C 24.7938368055556 22.4869791666667  24.5659722222222 22.494140625  24.3923611111111 22.494140625  C 24.21875 22.494140625  23.9836516203704 22.4905598958333  23.6870659722222 22.4833984375  C 23.3904803240741 22.4762369791667  23.1770833333333 22.47265625  23.046875 22.47265625  L 23.046875 24.427734375  L 20.3125 24.427734375  L 18.5763888888889 22.494140625  L 16.7751736111111 24.427734375  L 11.2196180555556 24.427734375  L 11.2196180555556 18.60546875  L 16.8619791666667 18.60546875  L 18.5980902777778 20.517578125  L 20.3776041666667 18.60546875  L 24.8697916666667 18.60546875  Z M 17.6215277777778 13.19140625  L 20.9201388888889 13.19140625  L 20.9201388888889 14.39453125  L 16.2109375 14.39453125  L 16.2109375 8.572265625  L 20.9201388888889 8.572265625  L 20.9201388888889 9.796875  L 17.6215277777778 9.796875  L 17.6215277777778 10.849609375  L 20.8333333333333 10.849609375  L 20.8333333333333 12.03125  L 17.6215277777778 12.03125  L 17.6215277777778 13.19140625  Z M 47.9383680555556 25.56640625  C 48.8064236111111 25.56640625  49.4936342592593 25.4446614583333  50 25.201171875  L 50 30.12109375  C 50 30.9088541666667  49.7214988425926 31.5856119791667  49.1644965277778 32.1513671875  C 48.607494212963 32.7171223958333  47.9311342592593 33  47.1354166666667 33  L 2.86458333333333 33  C 2.06886574074074 33  1.39250578703704 32.7171223958333  0.835503472222222 32.1513671875  C 0.278501157407407 31.5856119791667  0 30.9088541666667  0 30.12109375  L 0 15.5546875  L 2.40885416666667 15.5546875  L 2.95138888888889 14.244140625  L 4.14496527777778 14.244140625  L 4.6875 15.5546875  L 9.41840277777778 15.5546875  L 9.41840277777778 14.56640625  L 9.83072916666667 15.5546875  L 12.2829861111111 15.5546875  L 12.7170138888889 14.544921875  L 12.7170138888889 16  L 24.4574652777778 16  L 24.4574652777778 13.427734375  L 24.6744791666667 13.40625  C 24.8191550925926 13.40625  24.8914930555556 13.5065104166667  24.8914930555556 13.70703125  L 24.8914930555556 15.5546875  L 30.9461805555556 15.5546875  L 30.9461805555556 15.060546875  C 31.2789351851852 15.232421875  31.6767939814815 15.361328125  32.1397569444444 15.447265625  C 32.6027199074074 15.533203125  32.982494212963 15.5797526041667  33.2790798611111 15.5869140625  C 33.5756655092593 15.5940755208333  34.0313946759259 15.5904947916667  34.6462673611111 15.576171875  C 35.2611400462963 15.5618489583333  35.6336805555556 15.5546875  35.7638888888889 15.5546875  L 36.3064236111111 14.244140625  L 37.5217013888889 14.244140625  L 38.0642361111111 15.5546875  L 42.9904513888889 15.5546875  L 42.9904513888889 14.30859375  L 43.7282986111111 15.5546875  L 47.6779513888889 15.5546875  L 47.6779513888889 7.43359375  L 43.7717013888889 7.43359375  L 43.7717013888889 8.37890625  L 43.2291666666667 7.43359375  L 39.2144097222222 7.43359375  L 39.2144097222222 8.37890625  L 38.7152777777778 7.43359375  L 33.3116319444444 7.43359375  C 32.3133680555556 7.43359375  31.5248842592593 7.59114583333333  30.9461805555556 7.90625  L 30.9461805555556 7.43359375  L 27.2135416666667 7.43359375  L 27.2135416666667 7.90625  C 26.8663194444444 7.59114583333333  26.3382523148148 7.43359375  25.6293402777778 8  L 12.0008680555556 8  L 11.0677083333333 9.517578125  L 10.1345486111111 7.43359375  L 5.83767361111111 7.43359375  L 5.83767361111111 8.37890625  L 5.36024305555556 7.43359375  L 1.69270833333333 7.43359375  L 0 11.279296875  L 0 2.87890625  C 0 2.09114583333333  0.278501157407407 1.41438802083333  0.835503472222222 0.848632812500001  C 1.39250578703704 0.282877604166665  2.06886574074074 0  2.86458333333333 0  L 47.1354166666667 0  C 47.9311342592593 0  48.607494212963 0.282877604166665  49.1644965277778 0.848632812500001  C 49.7214988425926 1.41438802083333  50 2.09114583333333  50 2.87890625  L 50 17.4453125  L 47.3958333333333 17.4453125  C 46.6579861111111 17.4453125  46.0720486111111 17.6028645833333  45.6380208333333 17.91796875  L 45.6380208333333 17.4453125  L 41.796875 17.4453125  C 41.0011574074074 17.4453125  40.4369212962963 17.6028645833333  40.1041666666667 17.91796875  L 40.1041666666667 17.4453125  L 33.2465277777778 17.4453125  L 33.2465277777778 17.91796875  C 32.7980324074074 17.6028645833333  32.1686921296296 17.4453125  31.3585069444444 17.4453125  L 26.8229166666667 17.4453125  L 26.8229166666667 17.91796875  C 26.490162037037 17.6028645833333  25.8318865740741 17.4453125  24.8480902777778 17.4453125  L 19.7699652777778 17.4453125  L 18.5980902777778 18.69140625  L 17.5130208333333 17.4453125  L 9.93923611111111 17.4453125  L 9.93923611111111 25.56640625  L 17.3828125 25.56640625  L 18.5763888888889 24.298828125  L 19.7048611111111 25.56640625  L 24.2838541666667 25.56640625  L 24.2838541666667 23.654296875  L 24.7395833333333 23.654296875  C 25.5931712962963 23.654296875  26.244212962963 23.5611979166667  26.6927083333333 23.375  L 26.6927083333333 25.56640625  L 30.46875 25.56640625  L 30.46875 23.439453125  L 30.6423611111111 23.439453125  C 30.7581018518519 23.439453125  30.8304398148148 23.4537760416667  30.859375 23.482421875  C 30.8883101851852 23.5110677083333  30.9027777777778 23.5826822916667  30.9027777777778 23.697265625  L 30.9027777777778 25  L 42.3828125 25  C 43.2074652777778 25.56640625  43.8440393518519 25.39453125  44.2925347222222 25.05078125  L 44.2925347222222 25.56640625  L 47.9383680555556 25.56640625  Z M 32.9210069444444 18.927734375  C 33.3405671296296 19.142578125  33.5503472222222 19.5579427083333  33.5503472222222 20.173828125  C 33.5503472222222 20.5032552083333  33.4635416666667 20.8111979166667  33.2899305555556 21.09765625  C 33.1163194444444 21.3841145833333  32.8703703703704 21.591796875  32.5520833333333 21.720703125  C 32.9137731481482 21.849609375  33.1597222222222 22.0358072916667  33.2899305555556 22.279296875  C 33.4201388888889 22.5227864583333  33.4852430555556 22.8522135416667  33.4852430555556 23.267578125  L 33.4852430555556 24.427734375  L 32.0746527777778 24.427734375  L 32.0746527777778 23.4609375  C 32.0746527777778 22.98828125  31.9878472222222 22.6767578125  31.8142361111111 22.5263671875  C 31.640625 22.3759765625  31.3078703703704 22.30078125  30.8159722222222 22.30078125  L 29.3185763888889 22.30078125  L 29.3185763888889 24.427734375  L 27.9079861111111 24.427734375  L 27.9079861111111 18.60546875  L 31.25 18.60546875  C 31.9444444444444 18.60546875  32.5014467592593 18.712890625  32.9210069444444 18.927734375  Z M 26.9097222222222 8.9052734375  C 27.3292824074074 9.11295572916666  27.5390625 9.52473958333333  27.5390625 10.140625  C 27.5390625 10.484375  27.4486400462963 10.7994791666667  27.2677951388889 11.0859375  C 27.0869502314815 11.3723958333333  26.8446180555556 11.580078125  26.5407986111111 11.708984375  C 26.9169560185185 11.837890625  27.1665219907407 12.0205078125  27.2894965277778 12.2568359375  C 27.4124710648148 12.4931640625  27.4739583333333 12.826171875  27.4739583333333 13.255859375  L 27.4739583333333 14.39453125  L 26.0633680555556 14.39453125  C 26.0633680555556 14.265625  26.0669849537037 14.0758463541667  26.07421875 13.8251953125  C 26.0814525462963 13.5745442708333  26.0814525462963 13.3955078125  26.07421875 13.2880859375  C 26.0669849537037 13.1806640625  26.0452835648148 13.0481770833333  26.0091145833333 12.890625  C 25.9729456018519 12.7330729166667  25.9114583333333 12.6184895833333  25.8246527777778 12.546875  C 25.7378472222222 12.4752604166667  25.611255787037 12.4143880208333  25.4448784722222 12.3642578125  C 25.2785011574074 12.3141276041667  25.0651041666667 12.2890625  24.8046875 12.2890625  L 23.2855902777778 12.2890625  L 23.2855902777778 14.39453125  L 21.8967013888889 14.39453125  L 21.8967013888889 8.572265625  L 25.2170138888889 8.59375  C 25.9259259259259 8.59375  26.490162037037 8.69759114583333  26.9097222222222 8.9052734375  Z M 35.7421875 23.203125  L 39.0190972222222 23.224609375  L 39.0190972222222 24.427734375  L 34.3315972222222 24.427734375  L 34.3315972222222 18.60546875  L 39.0190972222222 18.60546875  L 39.0190972222222 19.80859375  L 35.7421875 19.80859375  L 35.7421875 20.861328125  L 38.9539930555556 20.861328125  L 38.9539930555556 22.04296875  L 35.7421875 22.04296875  L 35.7421875 23.203125  Z M 28.3420138888889 8.572265625  L 29.7743055555556 8.572265625  L 29.7743055555556 14.39453125  L 28.3420138888889 14.39453125  L 28.3420138888889 8.572265625  Z M 44.43359375 21.4091796875  C 44.6867766203704 21.6741536458333  44.8133680555556 22.064453125  44.8133680555556 22.580078125  C 44.8133680555556 23.8118489583333  44.0755208333333 24.427734375  42.5998263888889 24.427734375  L 39.8654513888889 24.427734375  L 39.8654513888889 23.181640625  L 42.5998263888889 23.181640625  C 43.091724537037 23.181640625  43.3376736111111 23.0026041666667  43.3376736111111 22.64453125  C 43.3376736111111 22.4153645833333  43.2146990740741 22.2649739583333  42.96875 22.193359375  C 42.7228009259259 22.1217447916667  42.4225983796296 22.0859375  42.0681423611111 22.0859375  C 41.7136863425926 22.0859375  41.3556134259259 22.0608723958333  40.9939236111111 22.0107421875  C 40.6322337962963 21.9606119791667  40.3284143518519 21.7994791666667  40.0824652777778 21.52734375  C 39.8365162037037 21.2552083333333  39.7135416666667 20.861328125  39.7135416666667 20.345703125  C 39.7135416666667 19.787109375  39.9016203703704 19.357421875  40.2777777777778 19.056640625  C 40.6539351851852 18.755859375  41.1313657407407 18.60546875  41.7100694444444 18.60546875  L 44.53125 18.60546875  L 44.53125 19.830078125  L 41.9487847222222 19.830078125  C 41.4279513888889 19.830078125  41.1675347222222 20.0091145833333  41.1675347222222 20.3671875  C 41.1675347222222 20.5963541666667  41.2941261574074 20.7431640625  41.5473090277778 20.8076171875  C 41.8004918981482 20.8720703125  42.1043113425926 20.9007161458333  42.4587673611111 20.8935546875  C 42.8132233796296 20.8863932291667  43.1676793981482 20.904296875  43.5221354166667 20.947265625  C 43.8765914351852 20.990234375  44.1804108796296 21.1442057291667  44.43359375 21.4091796875  Z M 48.7738715277778 20.947265625  C 49.3453414351852 20.990234375  49.7540509259259 21.1764322916667  50 21.505859375  L 50 23.67578125  C 49.6527777777778 24.1770833333333  49.0162037037037 24.427734375  48.0902777777778 24.427734375  L 45.3776041666667 24.427734375  L 45.3776041666667 23.181640625  L 48.0902777777778 23.181640625  C 48.5677083333333 23.181640625  48.8064236111111 23.0026041666667  48.8064236111111 22.64453125  C 48.8064236111111 22.4583333333333  48.7160011574074 22.322265625  48.53515625 22.236328125  C 48.3543113425926 22.150390625  48.1300636574074 22.1110026041667  47.8624131944444 22.1181640625  C 47.5947627314815 22.1253255208333  47.3054108796296 22.1110026041667  46.9943576388889 22.0751953125  C 46.6833043981482 22.0393880208333  46.3939525462963 21.9820963541667  46.1263020833333 21.9033203125  C 45.8586516203704 21.8245442708333  45.6344039351852 21.6526692708333  45.4535590277778 21.3876953125  C 45.2727141203704 21.1227213541667  45.1822916666667 20.775390625  45.1822916666667 20.345703125  C 45.1822916666667 19.787109375  45.3739872685185 19.357421875  45.7573784722222 19.056640625  C 46.1407696759259 18.755859375  46.6218171296296 18.60546875  47.2005208333333 18.60546875  L 50 18.60546875  L 50 19.830078125  L 47.4392361111111 19.830078125  C 46.9184027777778 19.830078125  46.6579861111111 20.0091145833333  46.6579861111111 20.3671875  C 46.6579861111111 20.6536458333333  46.8677662037037 20.8111979166667  47.2873263888889 20.83984375  C 47.7068865740741 20.8684895833333  48.2024016203704 20.904296875  48.7738715277778 20.947265625  Z M 44.9869791666667 8.59375  L 46.4192708333333 8.59375  L 46.4192708333333 14.39453125  L 44.4227430555556 14.39453125  L 41.7751736111111 10.033203125  L 41.7751736111111 14.39453125  L 38.9105902777778 14.39453125  L 38.3463541666667 13.10546875  L 35.4383680555556 13.10546875  L 34.8958333333333 14.39453125  L 33.2682291666667 14.39453125  C 31.4019097222222 14.39453125  30.46875 13.4420572916667  30.46875 11.537109375  C 30.46875 9.560546875  31.4308449074074 8.572265625  33.3550347222222 8.572265625  L 34.7222222222222 8.572265625  L 34.7222222222222 9.83984375  C 34.6209490740741 9.83984375  34.4184027777778 9.83268229166666  34.1145833333333 9.818359375  C 33.8107638888889 9.80403645833333  33.6046006944445 9.80045572916666  33.49609375 9.8076171875  C 33.3875868055556 9.81477864583333  33.2212094907407 9.8291015625  32.9969618055556 9.8505859375  C 32.7727141203704 9.8720703125  32.6171875 9.91861979166666  32.5303819444444 9.990234375  C 32.4435763888889 10.0618489583333  32.3386863425926 10.1585286458333  32.2157118055556 10.2802734375  C 32.0927372685185 10.4020182291667  32.0095486111111 10.5667317708333  31.9661458333333 10.7744140625  C 31.9227430555556 10.9820963541667  31.9010416666667 11.2220052083333  31.9010416666667 11.494140625  C 31.9010416666667 12.0384114583333  31.9986979166667 12.4537760416667  32.1940104166667 12.740234375  C 32.3893229166667 13.0266927083333  32.7473958333333 13.169921875  33.2682291666667 13.169921875  L 33.8975694444444 13.169921875  L 35.8940972222222 8.59375  L 37.9991319444444 8.59375  L 40.3645833333333 14.09375  L 40.3645833333333 8.59375  L 42.5130208333333 8.59375  L 44.9869791666667 12.6328125  L 44.9869791666667 8.59375  Z " fill-rule="nonzero" fill="#aaaaaa" stroke="none" transform="matrix(1 0 0 1 392 290 )" />
  </g>
</svg>