<?xml version="1.0" encoding="utf-8"?>
<svg version="1.1" xmlns:xlink="http://www.w3.org/1999/xlink" width="50px" height="33px" xmlns="http://www.w3.org/2000/svg">
  <g transform="matrix(1 0 0 1 -452 -290 )">
    <path d="M 15.7660590277778 15.7373046875  C 16.0337094907407 15.9736328125  16.1675347222222 16.2994791666667  16.1675347222222 16.71484375  C 16.1675347222222 17.2447916666667  15.9830729166667 17.6852213541667  15.6141493055556 18.0361328125  C 15.2452256944444 18.3870442708333  14.7931134259259 18.5625  14.2578125 18.5625  C 13.8382523148148 18.5625  13.501880787037 18.4479166666667  13.2486979166667 18.21875  C 12.9955150462963 17.9895833333333  12.8689236111111 17.6744791666667  12.8689236111111 17.2734375  C 12.8689236111111 16.7434895833333  13.0497685185185 16.2958984375  13.4114583333333 15.9306640625  C 13.7731481481482 15.5654296875  14.2216435185185 15.3828125  14.7569444444444 15.3828125  C 15.162037037037 15.3828125  15.4984085648148 15.5009765625  15.7660590277778 15.7373046875  Z M 32.9427083333333 12.8583984375  C 33.1163194444444 13.0087890625  33.203125 13.2272135416667  33.203125 13.513671875  C 33.203125 14.115234375  33.0439814814815 14.5234375  32.7256944444444 14.73828125  C 32.4074074074074 14.953125  31.9299768518519 15.060546875  31.2934027777778 15.060546875  L 30.5989583333333 15.08203125  L 30.9678819444444 12.783203125  C 30.9968171296296 12.6256510416667  31.0908564814815 12.546875  31.25 12.546875  L 31.640625 12.546875  C 31.958912037037 12.546875  32.2120949074074 12.5611979166667  32.4001736111111 12.58984375  C 32.5882523148148 12.6184895833333  32.7690972222222 12.7080078125  32.9427083333333 12.8583984375  Z M 40.4188368055556 15.7373046875  C 40.6864872685185 15.9736328125  40.8203125 16.2994791666667  40.8203125 16.71484375  C 40.8203125 17.23046875  40.6358506944445 17.6673177083333  40.2669270833333 18.025390625  C 39.8980034722222 18.3834635416667  39.453125 18.5625  38.9322916666667 18.5625  C 38.5127314814815 18.5625  38.1727430555556 18.4479166666667  37.9123263888889 18.21875  C 37.6519097222222 17.9895833333333  37.5217013888889 17.6744791666667  37.5217013888889 17.2734375  C 37.5217013888889 16.7434895833333  37.7025462962963 16.2958984375  38.0642361111111 15.9306640625  C 38.4259259259259 15.5654296875  38.8744212962963 15.3828125  39.4097222222222 15.3828125  C 39.8148148148148 15.3828125  40.1511863425926 15.5009765625  40.4188368055556 15.7373046875  Z M 10.0694444444444 15.9306640625  C 10.7783564814815 15.2360026041667  11.1328125 14.2727864583333  11.1328125 13.041015625  C 11.1328125 12.1959635416667  10.8543113425926 11.5836588541667  10.2973090277778 11.2041015625  C 9.74030671296296 10.8245442708333  9.01331018518519 10.634765625  8.11631944444444 10.634765625  L 4.64409722222222 10.634765625  C 4.36921296296296 10.634765625  4.21730324074074 10.7708333333333  4.18836805555556 11.04296875  L 2.77777777777778 19.80859375  C 2.76331018518519 19.89453125  2.78501157407407 19.9733072916667  2.84288194444444 20.044921875  C 2.90075231481482 20.1165364583333  2.97309027777778 20.15234375  3.05989583333333 20.15234375  L 4.70920138888889 20.15234375  C 4.99855324074074 20.15234375  5.15769675925926 20.0162760416667  5.18663194444444 19.744140625  L 5.57725694444444 17.380859375  C 5.59172453703704 17.2662760416667  5.64236111111111 17.1731770833333  5.72916666666667 17.1015625  C 5.81597222222222 17.0299479166667  5.92447916666667 16.9833984375  6.0546875 16.9619140625  C 6.18489583333333 16.9404296875  6.30787037037037 16.9296875  6.42361111111111 16.9296875  C 6.53935185185185 16.9296875  6.67679398148148 16.9368489583333  6.8359375 16.951171875  C 6.99508101851852 16.9654947916667  7.09635416666667 16.97265625  7.13975694444444 16.97265625  C 8.38396990740741 16.97265625  9.36053240740741 16.6253255208333  10.0694444444444 15.9306640625  Z M 17.3611111111111 20.15234375  C 17.6359953703704 20.15234375  17.7951388888889 20.0162760416667  17.8385416666667 19.744140625  L 18.7282986111111 14.13671875  C 18.7427662037037 14.05078125  18.7210648148148 13.9720052083333  18.6631944444444 13.900390625  C 18.6053240740741 13.8287760416667  18.5329861111111 13.79296875  18.4461805555556 13.79296875  L 16.796875 13.79296875  C 16.5943287037037 13.79296875  16.4713541666667 14.029296875  16.4279513888889 14.501953125  C 16.0373263888889 13.9290364583333  15.3501157407407 13.642578125  14.3663194444444 13.642578125  C 13.3246527777778 13.642578125  12.4385127314815 14.029296875  11.7078993055556 14.802734375  C 10.9772858796296 15.576171875  10.6119791666667 16.4856770833333  10.6119791666667 17.53125  C 10.6119791666667 18.3763020833333  10.8615451388889 19.0494791666667  11.3606770833333 19.55078125  C 11.8598090277778 20.0520833333333  12.5289351851852 20.302734375  13.3680555555556 20.302734375  C 13.7731481481482 20.302734375  14.1927083333333 20.216796875  14.6267361111111 20.044921875  C 15.0607638888889 19.873046875  15.4079861111111 19.6438802083333  15.6684027777778 19.357421875  C 15.6105324074074 19.529296875  15.5815972222222 19.6796875  15.5815972222222 19.80859375  C 15.5815972222222 20.0377604166667  15.6756365740741 20.15234375  15.8637152777778 20.15234375  L 17.3611111111111 20.15234375  Z M 27.4956597222222 14.244140625  C 27.5245949074074 14.2154947916667  27.5390625 14.1653645833333  27.5390625 14.09375  C 27.5390625 14.0221354166667  27.5101273148148 13.9541015625  27.4522569444444 13.8896484375  C 27.3943865740741 13.8251953125  27.3292824074074 13.79296875  27.2569444444444 13.79296875  L 25.5859375 13.79296875  C 25.4267939814815 13.79296875  25.2965856481482 13.8645833333333  25.1953125 14.0078125  L 22.8949652777778 17.359375  L 21.9401041666667 14.13671875  C 21.8677662037037 13.9075520833333  21.7086226851852 13.79296875  21.4626736111111 13.79296875  L 19.8350694444444 13.79296875  C 19.7627314814815 13.79296875  19.6976273148148 13.8251953125  19.6397569444444 13.8896484375  C 19.5818865740741 13.9541015625  19.5529513888889 14.0221354166667  19.5529513888889 14.09375  C 19.5529513888889 14.1223958333333  19.6940104166667 14.544921875  19.9761284722222 15.361328125  C 20.2582465277778 16.177734375  20.5620659722222 17.05859375  20.8875868055556 18.00390625  C 21.2131076388889 18.94921875  21.3831018518519 19.4505208333333  21.3975694444444 19.5078125  C 20.2112268518519 21.1119791666667  19.6180555555556 21.9713541666667  19.6180555555556 22.0859375  C 19.6180555555556 22.2721354166667  19.7120949074074 22.365234375  19.9001736111111 22.365234375  L 21.5711805555556 22.365234375  C 21.7303240740741 22.365234375  21.8605324074074 22.2936197916667  21.9618055555556 22.150390625  L 27.4956597222222 14.244140625  Z M 34.7222222222222 15.9306640625  C 35.4311342592593 15.2360026041667  35.7855902777778 14.2727864583333  35.7855902777778 13.041015625  C 35.7855902777778 12.1959635416667  35.5070891203704 11.5836588541667  34.9500868055556 11.2041015625  C 34.3930844907407 10.8245442708333  33.666087962963 10.634765625  32.7690972222222 10.634765625  L 29.3185763888889 10.634765625  C 29.029224537037 10.634765625  28.8700810185185 10.7708333333333  28.8411458333333 11.04296875  L 27.4305555555556 19.80859375  C 27.416087962963 19.89453125  27.4377893518519 19.9733072916667  27.4956597222222 20.044921875  C 27.5535300925926 20.1165364583333  27.6258680555556 20.15234375  27.7126736111111 20.15234375  L 29.4921875 20.15234375  C 29.6657986111111 20.15234375  29.7815393518519 20.0592447916667  29.8394097222222 19.873046875  L 30.2300347222222 17.380859375  C 30.2445023148148 17.2662760416667  30.2951388888889 17.1731770833333  30.3819444444444 17.1015625  C 30.46875 17.0299479166667  30.5772569444444 16.9833984375  30.7074652777778 16.9619140625  C 30.8376736111111 16.9404296875  30.9606481481482 16.9296875  31.0763888888889 16.9296875  C 31.1921296296296 16.9296875  31.3295717592593 16.9368489583333  31.4887152777778 16.951171875  C 31.6478587962963 16.9654947916667  31.7491319444444 16.97265625  31.7925347222222 16.97265625  C 33.0367476851852 16.97265625  34.0133101851852 16.6253255208333  34.7222222222222 15.9306640625  Z M 42.0138888888889 20.15234375  C 42.2887731481482 20.15234375  42.4479166666667 20.0162760416667  42.4913194444444 19.744140625  L 43.3810763888889 14.13671875  C 43.3955439814815 14.05078125  43.3738425925926 13.9720052083333  43.3159722222222 13.900390625  C 43.2581018518519 13.8287760416667  43.1857638888889 13.79296875  43.0989583333333 13.79296875  L 41.4496527777778 13.79296875  C 41.2471064814815 13.79296875  41.1241319444445 14.029296875  41.0807291666667 14.501953125  C 40.7045717592593 13.9290364583333  40.0173611111111 13.642578125  39.0190972222222 13.642578125  C 37.9774305555556 13.642578125  37.0912905092593 14.029296875  36.3606770833333 14.802734375  C 35.6300636574074 15.576171875  35.2647569444444 16.4856770833333  35.2647569444444 17.53125  C 35.2647569444444 18.3763020833333  35.5143229166667 19.0494791666667  36.0134548611111 19.55078125  C 36.5125868055556 20.0520833333333  37.181712962963 20.302734375  38.0208333333333 20.302734375  C 38.4403935185185 20.302734375  38.8671875 20.216796875  39.3012152777778 20.044921875  C 39.7352430555556 19.873046875  40.0752314814815 19.6438802083333  40.3211805555556 19.357421875  C 40.3211805555556 19.3717447916667  40.306712962963 19.4361979166667  40.2777777777778 19.55078125  C 40.2488425925926 19.6653645833333  40.234375 19.7513020833333  40.234375 19.80859375  C 40.234375 20.0377604166667  40.3284143518519 20.15234375  40.5164930555556 20.15234375  L 42.0138888888889 20.15234375  Z M 45.8116319444444 19.744140625  L 47.2222222222222 10.95703125  L 47.2222222222222 10.935546875  C 47.2222222222222 10.7350260416667  47.1281828703704 10.634765625  46.9401041666667 10.634765625  L 45.3342013888889 10.634765625  C 45.1750578703704 10.634765625  45.0810185185185 10.7135416666667  45.0520833333333 10.87109375  L 43.6414930555556 19.80859375  L 43.6197916666667 19.8515625  C 43.6197916666667 19.9231770833333  43.6487268518519 19.9912109375  43.7065972222222 20.0556640625  C 43.7644675925926 20.1201171875  43.8368055555556 20.15234375  43.9236111111111 20.15234375  L 45.3559027777778 20.15234375  C 45.630787037037 20.15234375  45.7826967592593 20.0162760416667  45.8116319444444 19.744140625  Z M 8.24652777777778 12.7939453125  C 8.50694444444444 12.9586588541667  8.59375 13.3059895833333  8.50694444444444 13.8359375  C 8.43460648148148 14.3372395833333  8.24652777777778 14.6666666666667  7.94270833333333 14.82421875  C 7.63888888888889 14.9817708333333  7.20486111111111 15.060546875  6.640625 15.060546875  L 5.92447916666667 15.08203125  L 6.29340277777778 12.783203125  C 6.32233796296296 12.6256510416667  6.41637731481482 12.546875  6.57552083333333 12.546875  L 6.98784722222222 12.546875  C 7.56655092592593 12.546875  7.98611111111111 12.6292317708333  8.24652777777778 12.7939453125  Z M 49.1753472222222 0.816406250000001  C 49.7251157407407 1.36067708333333  50 2.00520833333333  50 2.75  L 50 30.25  C 50 30.9947916666667  49.7251157407407 31.6393229166667  49.1753472222222 32.18359375  C 48.6255787037037 32.7278645833333  47.974537037037 33  47.2222222222222 33  L 2.77777777777778 33  C 2.02546296296296 33  1.3744212962963 32.7278645833333  0.824652777777778 32.18359375  C 0.274884259259259 31.6393229166667  0 30.9947916666667  0 30.25  L 0 2.75  C 0 2.00520833333333  0.274884259259259 1.36067708333333  0.824652777777778 0.816406250000001  C 1.3744212962963 0.272135416666663  2.02546296296296 0  2.77777777777778 0  L 47.2222222222222 0  C 47.974537037037 0  48.6255787037037 0.272135416666663  49.1753472222222 0.816406250000001  Z " fill-rule="nonzero" fill="#aaaaaa" stroke="none" transform="matrix(1 0 0 1 452 290 )" />
  </g>
</svg>