<?xml version="1.0" encoding="utf-8"?>
<svg version="1.1" xmlns:xlink="http://www.w3.org/1999/xlink" width="11px" height="14px" xmlns="http://www.w3.org/2000/svg">
  <g transform="matrix(1 0 0 1 -177 -860 )">
    <path d="M 10.7958984375 0.461805555555556  C 10.9319661458333 0.769675925925923  11 1.13425925925926  11 1.55555555555556  C 11 1.97685185185185  10.9319661458333 2.34143518518518  10.7958984375 2.64930555555556  L 5.9833984375 13.5381944444444  C 5.84733072916667 13.8460648148148  5.68619791666667 14  5.5 14  C 5.31380208333333 14  5.15266927083333 13.8460648148148  5.0166015625 13.5381944444444  L 0.2041015625 2.64930555555556  C 0.0680338541666667 2.34143518518518  0 1.97685185185185  0 1.55555555555556  C 0 1.13425925925926  0.0680338541666667 0.769675925925923  0.2041015625 0.461805555555556  C 0.340169270833333 0.153935185185183  0.501302083333333 0  0.6875 0  L 10.3125 0  C 10.4986979166667 0  10.6598307291667 0.153935185185183  10.7958984375 0.461805555555556  Z " fill-rule="nonzero" fill="#d7d7d7" stroke="none" transform="matrix(1 0 0 1 177 860 )" />
  </g>
</svg>