<?xml version="1.0" encoding="utf-8"?>
<svg version="1.1" xmlns:xlink="http://www.w3.org/1999/xlink" width="85px" height="26px" xmlns="http://www.w3.org/2000/svg">
  <g transform="matrix(1 0 0 1 -135 -261 )">
    <path d="M 71.4605034722222 11.4596354166667  L 72.8624131944444 14.5911458333333  L 67.7712673611111 14.5911458333333  C 68.1155960648148 14.1736111111111  68.9272280092593 13.1636284722222  70.2061631944444 11.5611979166667  L 70.3168402777778 11.4088541666667  C 70.4152199074074 11.2960069444444  70.5381944444444 11.1493055555556  70.6857638888889 10.96875  C 70.8333333333333 10.7881944444444  70.9440104166667 10.6414930555556  71.0177951388889 10.5286458333333  L 71.4605034722222 11.4596354166667  Z M 4.72222222222222 7.80338541666667  C 12.3712384259259 8.69487847222222  17.3271122685185 10.5907118055556  19.58984375 13.4908854166667  L 17.4500868055556 8.49739583333333  C 17.1795428240741 7.88802083333333  16.2572337962963 7.58333333333333  14.6831597222222 7.58333333333333  L 4.79600694444444 7.58333333333333  L 4.72222222222222 7.80338541666667  Z M 32.6866319444444 7.58333333333333  L 26.1935763888889 7.58333333333333  L 20.2170138888889 14.9973958333333  L 19.58984375 13.4908854166667  C 18.9503761574074 12.7009548611111  17.9050925925926 11.9702690972222  16.4539930555556 11.298828125  C 15.0028935185185 10.6273871527778  13.3919270833333 10.1280381944444  11.62109375 9.80078125  L 16.6015625 18.43359375  L 23.0577256944444 18.43359375  L 32.6866319444444 7.58333333333333  Z M 35.1584201388889 7.58333333333333  L 31.3216145833333 18.4505208333333  L 37.4457465277778 18.4505208333333  L 41.2825520833333 7.58333333333333  L 35.1584201388889 7.58333333333333  Z M 58.8064236111111 10.20703125  L 59.6549479166667 7.85416666666667  C 57.9578993055556 7.54947916666667  56.1255787037037 7.39713541666667  54.1579861111111 7.39713541666667  C 51.1328125 7.39713541666667  48.6610243055556 7.73003472222222  46.7426215277778 8.39583333333333  C 44.82421875 9.06163194444444  43.8527199074074 9.92491319444444  43.828125 10.9856770833333  C 43.8035300925926 12.13671875  45.5866608796296 13.1184895833333  49.1775173611111 13.9309895833333  C 50.3580729166667 14.1905381944444  51.1820023148148 14.421875  51.6493055555556 14.625  C 52.1166087962963 14.828125  52.3502604166667 15.0481770833333  52.3502604166667 15.28515625  C 52.3502604166667 15.6236979166667  51.9813368055556 15.8832465277778  51.2434895833333 16.0638020833333  C 50.5056423611111 16.2443576388889  49.6571180555556 16.3346354166667  48.6979166666667 16.3346354166667  C 46.5827546296296 16.3346354166667  44.6643518518519 16.1484375  42.9427083333333 15.7760416666667  L 42.1310763888889 15.58984375  L 41.2825520833333 18.02734375  C 43.1025752314815 18.4110243055556  45.3776041666667 18.6028645833333  48.1076388888889 18.6028645833333  C 51.3049768518519 18.6141493055556  53.8689959490741 18.28125  55.7996961805556 17.6041666666667  C 57.730396412037 16.9270833333333  58.7203414351852 16.0243055555556  58.76953125 14.8958333333333  C 58.76953125 13.6996527777778  57.0478877314815 12.7178819444444  53.6046006944445 11.9505208333333  C 52.3994502314815 11.6684027777778  51.5263310185185 11.4314236111111  50.9852430555556 11.2395833333333  C 50.4441550925926 11.0477430555556  50.1736111111111 10.8333333333333  50.1736111111111 10.5963541666667  C 50.1736111111111 10.3480902777778  50.4748987268519 10.130859375  51.0774739583333 9.94466145833333  C 51.6800491898148 9.75846354166666  52.5470196759259 9.66536458333333  53.6783854166667 9.66536458333333  C 55.4000289351852 9.65407986111111  56.9249131944445 9.78949652777778  58.2530381944445 10.0716145833333  L 58.8064236111111 10.20703125  Z M 80.2777777777778 18.4505208333333  L 75.3342013888889 7.58333333333333  L 70.6119791666667 7.58333333333333  C 69.0133101851852 7.58333333333333  67.943431712963 7.88802083333333  67.40234375 8.49739583333333  L 58.3268229166667 18.4505208333333  L 64.74609375 18.4505208333333  L 66.0373263888889 16.8255208333333  L 73.8585069444444 16.8255208333333  C 73.9814814814815 17.0737847222222  74.2274305555556 17.6154513888889  74.5963541666667 18.4505208333333  L 80.2777777777778 18.4505208333333  Z M 83.5980902777778 0.643229166666668  C 84.5326967592593 1.07204861111111  85 1.57986111111111  85 2.16666666666667  L 85 23.8333333333333  C 85 24.4201388888889  84.5326967592593 24.9279513888889  83.5980902777778 25.3567708333333  C 82.6634837962963 25.7855902777778  81.556712962963 26  80.2777777777778 26  L 4.72222222222222 26  C 3.44328703703704 26  2.3365162037037 25.7855902777778  1.40190972222222 25.3567708333333  C 0.467303240740741 24.9279513888889  0 24.4201388888889  0 23.8333333333333  L 0 2.16666666666667  C 0 1.57986111111111  0.467303240740741 1.07204861111111  1.40190972222222 0.643229166666668  C 2.3365162037037 0.21440972222222  3.44328703703704 0  4.72222222222222 0  L 80.2777777777778 0  C 81.556712962963 0  82.6634837962963 0.21440972222222  83.5980902777778 0.643229166666668  Z " fill-rule="nonzero" fill="#aaaaaa" stroke="none" transform="matrix(1 0 0 1 135 261 )" />
  </g>
</svg>