<?xml version="1.0" encoding="utf-8"?>
<svg version="1.1" xmlns:xlink="http://www.w3.org/1999/xlink" width="94px" height="26px" xmlns="http://www.w3.org/2000/svg">
  <g transform="matrix(1 0 0 1 -255 -262 )">
    <path d="M 38.4118923611111 8.09114583333333  C 39.7038483796296 6.30815972222222  42.1177662037037 4.81293402777778  45.6536458333333 3.60546875  C 42.1721643518519 2.64626736111111  38.3506944444444 2.16666666666667  34.1892361111111 2.16666666666667  C 31.3877314814815 2.16666666666667  28.7018229166667 2.39518229166667  26.1315104166667 2.85221354166667  C 23.5611979166667 3.30924479166667  21.3512731481481 3.92144097222222  19.5017361111111 4.68880208333333  C 17.6521990740741 5.45616319444444  16.1766493055556 6.37022569444444  15.0750868055556 7.43098958333333  C 13.9735243055556 8.49175347222222  13.4227430555556 9.60329861111111  13.4227430555556 10.765625  C 13.4227430555556 11.9392361111111  13.9735243055556 13.0564236111111  15.0750868055556 14.1171875  C 16.1766493055556 15.1779513888889  17.6521990740741 16.0920138888889  19.5017361111111 16.859375  C 21.3512731481481 17.6267361111111  23.5543981481481 18.2389322916667  26.1111111111111 18.6959635416667  C 28.6678240740741 19.1529947916667  31.3605324074074 19.3815104166667  34.1892361111111 19.3815104166667  C 38.3506944444444 19.3815104166667  42.1721643518519 18.9019097222222  45.6536458333333 17.9427083333333  C 42.0905671296296 16.7352430555556  39.669849537037 15.2371961805556  38.3914930555556 13.4485677083333  C 37.1131365740741 11.6599392361111  37.1199363425926 9.87413194444444  38.4118923611111 8.09114583333333  Z M 54.0173611111111 8.23502604166667  C 52.7662037037037 6.53667534722222  50.4270833333333 5.12890625  47 4.01171875  C 43.5729166666667 5.12890625  41.2337962962963 6.53667534722222  39.9826388888889 8.23502604166667  C 38.7314814814815 9.93337673611111  38.724681712963 11.62890625  39.9622395833333 13.3216145833333  C 41.1997974537037 15.0143229166667  43.5457175925926 16.4192708333333  47 17.5364583333333  C 50.4542824074074 16.4192708333333  52.8002025462963 15.0143229166667  54.0377604166667 13.3216145833333  C 55.275318287037 11.62890625  55.2685185185185 9.93337673611111  54.0173611111111 8.23502604166667  Z M 59.8107638888889 2.16666666666667  C 55.6493055555556 2.16666666666667  51.8278356481482 2.64626736111111  48.3463541666667 3.60546875  C 51.8822337962963 4.81293402777778  54.2961516203704 6.31098090277778  55.5881076388889 8.099609375  C 56.8800636574074 9.88823784722222  56.8868634259259 11.6768663194444  55.6085069444445 13.4654947916667  C 54.330150462963 15.2541232638889  51.9094328703704 16.7465277777778  48.3463541666667 17.9427083333333  C 51.8278356481482 18.9019097222222  55.6493055555556 19.3815104166667  59.8107638888889 19.3815104166667  C 62.6394675925926 19.3815104166667  65.3321759259259 19.1529947916667  67.8888888888889 18.6959635416667  C 70.4456018518519 18.2389322916667  72.6487268518519 17.6267361111111  74.4982638888889 16.859375  C 76.3478009259259 16.0920138888889  77.8233506944444 15.1779513888889  78.9249131944444 14.1171875  C 80.0264756944444 13.0564236111111  80.5772569444444 11.9392361111111  80.5772569444444 10.765625  C 80.5772569444444 9.60329861111111  80.0264756944444 8.49175347222222  78.9249131944444 7.43098958333333  C 77.8233506944444 6.37022569444444  76.3478009259259 5.45616319444444  74.4982638888889 4.68880208333333  C 72.6487268518519 3.92144097222222  70.4388020833333 3.30924479166667  67.8684895833333 2.85221354166667  C 65.2981770833333 2.39518229166667  62.6122685185185 2.16666666666667  59.8107638888889 2.16666666666667  Z M 78.578125 16.1145833333333  L 78.578125 15.8268229166667  L 78.8637152777778 15.8268229166667  L 78.8637152777778 15.7760416666667  L 78.1701388888889 15.7760416666667  L 78.1701388888889 15.8268229166667  L 78.4557291666667 15.8268229166667  L 78.4557291666667 16.1145833333333  L 78.578125 16.1145833333333  Z M 79.7612847222222 15.8606770833333  L 79.7612847222222 16.1145833333333  L 79.9244791666667 16.1145833333333  L 79.9244791666667 15.7760416666667  L 79.7204861111111 15.7760416666667  L 79.4756944444444 15.99609375  L 79.2309027777778 15.7760416666667  L 79.0269097222222 15.7760416666667  L 79.0269097222222 16.1145833333333  L 79.1493055555556 16.1145833333333  L 79.1493055555556 15.8606770833333  L 79.3940972222222 16.0807291666667  L 79.5572916666667 16.0807291666667  L 79.7612847222222 15.8606770833333  Z M 79.4348958333333 23.5455729166667  L 79.4348958333333 23.5625  L 79.4348958333333 23.5963541666667  L 79.3532986111111 23.5963541666667  L 79.2309027777778 23.5963541666667  L 79.2309027777778 23.5455729166667  L 79.3532986111111 23.5455729166667  L 79.4348958333333 23.5455729166667  Z M 79.2717013888889 23.6302083333333  L 79.4348958333333 23.71484375  L 79.5572916666667 23.71484375  L 79.3940972222222 23.6302083333333  L 79.4756944444444 23.6302083333333  L 79.5164930555556 23.61328125  C 79.5436921296296 23.6019965277778  79.5572916666667 23.5850694444444  79.5572916666667 23.5625  C 79.5572916666667 23.5399305555556  79.5436921296296 23.5230034722222  79.5164930555556 23.51171875  L 79.4756944444444 23.4947916666667  L 79.3532986111111 23.4947916666667  L 79.1085069444444 23.4947916666667  L 79.1085069444444 23.71484375  L 79.2309027777778 23.71484375  L 79.2309027777778 23.6302083333333  L 79.2717013888889 23.6302083333333  Z M 28.3958333333333 23.0885416666667  C 28.0966435185185 22.953125  27.9470486111111 22.7782118055556  27.9470486111111 22.5638020833333  C 27.9470486111111 22.3493923611111  28.0966435185185 22.1744791666667  28.3958333333333 22.0390625  C 28.6950231481481 21.9036458333333  29.1030092592593 21.8359375  29.6197916666667 21.8359375  C 30.109375 21.8359375  30.5037615740741 21.9064670138889  30.8029513888889 22.0475260416667  C 31.1021412037037 22.1885850694444  31.2517361111111 22.3606770833333  31.2517361111111 22.5638020833333  C 31.2517361111111 22.7782118055556  31.1021412037037 22.953125  30.8029513888889 23.0885416666667  C 30.5037615740741 23.2239583333333  30.109375 23.2916666666667  29.6197916666667 23.2916666666667  C 29.1030092592593 23.2916666666667  28.6950231481481 23.2239583333333  28.3958333333333 23.0885416666667  Z M 45.8168402777778 22.3606770833333  C 45.9528356481482 21.9995659722222  46.4288194444444 21.8190104166667  47.2447916666667 21.8190104166667  C 48.0607638888889 21.8190104166667  48.5367476851852 21.9995659722222  48.6727430555556 22.3606770833333  L 45.8168402777778 22.3606770833333  Z M 62.2178819444445 23.0885416666667  C 61.9186921296296 22.953125  61.7690972222222 22.7782118055556  61.7690972222222 22.5638020833333  C 61.7690972222222 22.3493923611111  61.9186921296296 22.1744791666667  62.2178819444445 22.0390625  C 62.5170717592593 21.9036458333333  62.9114583333333 21.8359375  63.4010416666667 21.8359375  C 63.890625 21.8359375  64.2918113425926 21.9064670138889  64.6046006944444 22.0475260416667  C 64.9173900462963 22.1885850694444  65.0737847222222 22.3606770833333  65.0737847222222 22.5638020833333  C 65.0737847222222 22.7782118055556  64.9241898148148 22.953125  64.625 23.0885416666667  C 64.3258101851852 23.2239583333333  63.9178240740741 23.2916666666667  63.4010416666667 23.2916666666667  C 62.9114583333333 23.2916666666667  62.5170717592593 23.2239583333333  62.2178819444445 23.0885416666667  Z M 73.3355034722222 23.080078125  C 73.0227141203704 22.9390190972222  72.8663194444444 22.7669270833333  72.8663194444444 22.5638020833333  C 72.8663194444444 22.3606770833333  73.0227141203704 22.1885850694444  73.3355034722222 22.0475260416667  C 73.6482928240741 21.9064670138889  74.0494791666667 21.8359375  74.5390625 21.8359375  C 75.0286458333333 21.8359375  75.4298321759259 21.9064670138889  75.7426215277778 22.0475260416667  C 76.0554108796296 22.1885850694444  76.2118055555556 22.3606770833333  76.2118055555556 22.5638020833333  C 76.2118055555556 22.7782118055556  76.0554108796296 22.953125  75.7426215277778 23.0885416666667  C 75.4298321759259 23.2239583333333  75.0286458333333 23.2916666666667  74.5390625 23.2916666666667  C 74.0494791666667 23.2916666666667  73.6482928240741 23.2211371527778  73.3355034722222 23.080078125  Z M 79.4756944444444 23.765625  C 79.4484953703704 23.7769097222222  79.3940972222222 23.7825520833333  79.3125 23.7825520833333  C 79.2581018518518 23.7825520833333  79.2037037037037 23.7769097222222  79.1493055555556 23.765625  C 79.1221064814815 23.765625  79.0813078703704 23.7543402777778  79.0269097222222 23.7317708333333  C 78.9725115740741 23.7092013888889  78.9453125 23.6922743055556  78.9453125 23.6809895833333  C 78.9181134259259 23.6584201388889  78.9045138888889 23.6358506944444  78.9045138888889 23.61328125  C 78.9045138888889 23.5794270833333  78.9181134259259 23.5568576388889  78.9453125 23.5455729166667  C 78.9453125 23.5230034722222  78.9725115740741 23.5004340277778  79.0269097222222 23.4778645833333  L 79.0677083333333 23.4609375  C 79.1221064814815 23.4609375  79.1493055555556 23.4552951388889  79.1493055555556 23.4440104166667  C 79.2037037037037 23.4327256944444  79.2581018518518 23.4270833333333  79.3125 23.4270833333333  C 79.3940972222222 23.4270833333333  79.4484953703704 23.4327256944444  79.4756944444444 23.4440104166667  L 79.6388888888889 23.4778645833333  L 79.7204861111111 23.5455729166667  L 79.7204861111111 23.5625  C 79.7476851851852 23.5850694444444  79.7612847222222 23.6019965277778  79.7612847222222 23.61328125  L 79.7204861111111 23.6302083333333  L 79.7204861111111 23.6809895833333  C 79.7204861111111 23.6809895833333  79.7068865740741 23.6866319444444  79.6796875 23.6979166666667  L 79.6388888888889 23.7317708333333  C 79.5844907407407 23.7543402777778  79.5300925925926 23.765625  79.4756944444444 23.765625  Z M 24.4383680555556 22.4453125  L 24.4383680555556 23.71484375  L 25.6623263888889 23.71484375  L 25.6623263888889 22.2760416666667  C 25.6623263888889 22.0052083333333  25.4651331018519 21.7879774305556  25.0707465277778 21.6243489583333  C 24.6763599537037 21.4607204861111  24.1391782407407 21.3732638888889  23.4592013888889 21.3619791666667  C 22.5888310185185 21.3619791666667  21.9496527777778 21.4973958333333  21.5416666666667 21.7682291666667  C 21.1608796296296 21.4973958333333  20.548900462963 21.3619791666667  19.7057291666667 21.3619791666667  C 19.0529513888889 21.3619791666667  18.5225694444444 21.4748263888889  18.1145833333333 21.7005208333333  L 18.1145833333333 21.4296875  L 16.890625 21.4296875  L 16.890625 23.71484375  L 18.1145833333333 23.71484375  L 18.1145833333333 22.4453125  C 18.1145833333333 22.0390625  18.5633680555556 21.8359375  19.4609375 21.8359375  C 20.2769097222222 21.8359375  20.6848958333333 22.0390625  20.6848958333333 22.4453125  L 20.6848958333333 23.71484375  L 21.8680555555556 23.71484375  L 21.8680555555556 22.4453125  C 21.8680555555556 22.0390625  22.3168402777778 21.8359375  23.2144097222222 21.8359375  C 24.0303819444444 21.8359375  24.4383680555556 22.0390625  24.4383680555556 22.4453125  Z M 31.2109375 23.4270833333333  L 31.2109375 23.71484375  L 32.3940972222222 23.71484375  L 32.3940972222222 22.5638020833333  L 32.3940972222222 21.4296875  L 31.2109375 21.4296875  L 31.2109375 21.7005208333333  C 30.7485532407407 21.4748263888889  30.1637731481481 21.3619791666667  29.4565972222222 21.3619791666667  C 28.6678240740741 21.3619791666667  28.0150462962963 21.4748263888889  27.4982638888889 21.7005208333333  C 26.9814814814815 21.9262152777778  26.7230902777778 22.2139756944444  26.7230902777778 22.5638020833333  C 26.7230902777778 22.9136284722222  26.9814814814815 23.2013888888889  27.4982638888889 23.4270833333333  C 28.0150462962963 23.6527777777778  28.6678240740741 23.765625  29.4565972222222 23.765625  C 30.2181712962963 23.765625  30.8029513888889 23.6527777777778  31.2109375 23.4270833333333  Z M 37.7999131944444 23.5625  C 38.2486979166667 23.4270833333333  38.4730902777778 23.2465277777778  38.4730902777778 23.0208333333333  C 38.4730902777778 22.6371527777778  37.833912037037 22.4114583333333  36.5555555555556 22.34375  L 35.984375 22.3098958333333  C 35.3587962962963 22.2647569444444  35.0460069444444 22.1857638888889  35.0460069444444 22.0729166666667  C 35.0460069444444 21.9036458333333  35.3859953703704 21.8190104166667  36.0659722222222 21.8190104166667  C 36.6915509259259 21.8190104166667  37.2763310185185 21.8810763888889  37.8203125 22.0052083333333  L 38.3098958333333 21.5989583333333  C 37.7115162037037 21.4409722222222  36.9635416666667 21.3619791666667  36.0659722222222 21.3619791666667  C 35.3587962962963 21.3619791666667  34.8012152777778 21.4296875  34.3932291666667 21.5651041666667  C 33.9852430555556 21.7005208333333  33.78125 21.8810763888889  33.78125 22.1067708333333  C 33.78125 22.4791666666667  34.4204282407407 22.69921875  35.6987847222222 22.7669270833333  L 36.2291666666667 22.80078125  C 36.8819444444445 22.8459201388889  37.2083333333333 22.9249131944444  37.2083333333333 23.0377604166667  C 37.2083333333333 23.2296006944444  36.7867476851852 23.3255208333333  35.9435763888889 23.3255208333333  C 35.263599537037 23.3255208333333  34.6516203703704 23.2465277777778  34.1076388888889 23.0885416666667  L 33.5772569444444 23.4778645833333  C 34.2572337962963 23.6697048611111  35.0460069444444 23.765625  35.9435763888889 23.765625  C 36.732349537037 23.765625  37.3511284722222 23.6979166666667  37.7999131944444 23.5625  Z M 42.3081597222222 23.765625  C 42.8793402777778 23.765625  43.3689236111111 23.7092013888889  43.7769097222222 23.5963541666667  L 43.4505208333333 23.1731770833333  C 43.0969328703704 23.2521701388889  42.7433449074074 23.2916666666667  42.3897569444444 23.2916666666667  C 41.872974537037 23.2916666666667  41.6145833333333 23.1675347222222  41.6145833333333 22.9192708333333  L 41.6145833333333 21.88671875  L 43.5729166666667 21.88671875  L 43.5729166666667 21.4296875  L 41.6145833333333 21.4296875  L 41.6145833333333 20.7356770833333  L 40.390625 20.7356770833333  L 40.390625 21.4296875  L 39.2482638888889 21.4296875  L 39.2482638888889 21.88671875  L 40.390625 21.88671875  L 40.390625 22.9192708333333  C 40.390625 23.4835069444444  41.0298032407407 23.765625  42.3081597222222 23.765625  Z M 49.1623263888889 21.6920572916667  C 48.6727430555556 21.4720052083333  48.0471643518518 21.3619791666667  47.2855902777778 21.3619791666667  C 46.4968171296296 21.3619791666667  45.8440393518519 21.4748263888889  45.3272569444444 21.7005208333333  C 44.810474537037 21.9262152777778  44.5520833333333 22.2139756944444  44.5520833333333 22.5638020833333  C 44.5520833333333 22.9249131944444  44.8172743055556 23.2154947916667  45.34765625 23.435546875  C 45.8780381944444 23.6555989583333  46.5512152777778 23.765625  47.3671875 23.765625  C 48.2647569444445 23.765625  49.0127314814815 23.6584201388889  49.6111111111111 23.4440104166667  L 49.0399305555556 23.0716145833333  C 48.5503472222222 23.2408854166667  48.0199652777778 23.3255208333333  47.4487847222222 23.3255208333333  C 46.5240162037037 23.3255208333333  45.9664351851852 23.1393229166667  45.7760416666667 22.7669270833333  L 49.8967013888889 22.7669270833333  L 49.8967013888889 22.5638020833333  C 49.8967013888889 22.2026909722222  49.6519097222222 21.912109375  49.1623263888889 21.6920572916667  Z M 54.6293402777778 21.4296875  C 54.3845486111111 21.3845486111111  54.0989583333333 21.3619791666667  53.7725694444445 21.3619791666667  C 53.1469907407407 21.3619791666667  52.6710069444445 21.4748263888889  52.3446180555556 21.7005208333333  L 52.3446180555556 21.4296875  L 51.1206597222222 21.4296875  L 51.1206597222222 23.71484375  L 52.3446180555556 23.71484375  L 52.3446180555556 22.4283854166667  C 52.3446180555556 22.0334201388889  52.7390046296296 21.8359375  53.5277777777778 21.8359375  C 53.7997685185185 21.8359375  54.0445601851852 21.8585069444444  54.2621527777778 21.9036458333333  L 54.6293402777778 21.4296875  Z M 55.7921006944445 21.7005208333333  C 55.26171875 21.9262152777778  54.9965277777778 22.2139756944444  54.9965277777778 22.5638020833333  C 54.9965277777778 22.9136284722222  55.26171875 23.2013888888889  55.7921006944445 23.4270833333333  C 56.3224826388889 23.6527777777778  57.0364583333333 23.765625  57.9340277777778 23.765625  C 58.7228009259259 23.765625  59.3755787037037 23.6753472222222  59.8923611111111 23.4947916666667  L 59.3211805555556 23.0885416666667  C 58.8315972222222 23.2352430555556  58.3556134259259 23.3029513888889  57.8932291666667 23.2916666666667  C 57.4036458333333 23.2916666666667  57.0024594907407 23.2239583333333  56.6896701388889 23.0885416666667  C 56.376880787037 22.953125  56.2204861111111 22.7782118055556  56.2204861111111 22.5638020833333  C 56.2204861111111 22.3493923611111  56.376880787037 22.1744791666667  56.6896701388889 22.0390625  C 57.0024594907407 21.9036458333333  57.4036458333333 21.8359375  57.8932291666667 21.8359375  C 58.4100115740741 21.8359375  58.8859953703704 21.9036458333333  59.3211805555556 22.0390625  L 59.8923611111111 21.6328125  C 59.3483796296296 21.4522569444444  58.6956018518518 21.3619791666667  57.9340277777778 21.3619791666667  C 57.0364583333333 21.3619791666667  56.3224826388889 21.4748263888889  55.7921006944445 21.7005208333333  Z M 64.9921875 23.4270833333333  L 64.9921875 23.71484375  L 66.2161458333333 23.71484375  L 66.2161458333333 22.5638020833333  L 66.2161458333333 21.4296875  L 64.9921875 21.4296875  L 64.9921875 21.7005208333333  C 64.5842013888889 21.4748263888889  64.0130208333333 21.3619791666667  63.2786458333333 21.3619791666667  C 62.4898726851852 21.3619791666667  61.8302951388889 21.4748263888889  61.2999131944445 21.7005208333333  C 60.76953125 21.9262152777778  60.5043402777778 22.2139756944444  60.5043402777778 22.5638020833333  C 60.5043402777778 22.9136284722222  60.76953125 23.2013888888889  61.2999131944445 23.4270833333333  C 61.8302951388889 23.6527777777778  62.4898726851852 23.765625  63.2786458333333 23.765625  C 64.0402199074074 23.765625  64.611400462963 23.6527777777778  64.9921875 23.4270833333333  Z M 71.2751736111111 21.4296875  C 71.0575810185185 21.3845486111111  70.7719907407407 21.3619791666667  70.4184027777778 21.3619791666667  C 69.7928240740741 21.3619791666667  69.3168402777778 21.4748263888889  68.9904513888889 21.7005208333333  L 68.9904513888889 21.4296875  L 67.8072916666667 21.4296875  L 67.8072916666667 23.71484375  L 68.9904513888889 23.71484375  L 68.9904513888889 22.4283854166667  C 68.9904513888889 22.0334201388889  69.384837962963 21.8359375  70.1736111111111 21.8359375  C 70.4456018518518 21.8359375  70.6903935185185 21.8585069444444  70.9079861111111 21.9036458333333  L 71.2751736111111 21.4296875  Z M 76.1302083333333 23.4270833333333  L 76.1302083333333 23.71484375  L 77.3133680555556 23.71484375  L 77.3133680555556 22.5638020833333  L 77.3133680555556 20.4986979166667  L 76.1302083333333 20.4986979166667  L 76.1302083333333 21.7005208333333  C 75.7222222222222 21.4748263888889  75.1374421296296 21.3619791666667  74.3758680555556 21.3619791666667  C 73.6142939814815 21.3619791666667  72.9683159722222 21.4776475694444  72.4379340277778 21.708984375  C 71.9075520833333 21.9403211805556  71.6423611111111 22.2252604166667  71.6423611111111 22.5638020833333  C 71.6423611111111 22.90234375  71.9075520833333 23.1872829861111  72.4379340277778 23.4186197916667  C 72.9683159722222 23.6499565972222  73.6142939814815 23.765625  74.3758680555556 23.765625  C 75.1646412037037 23.765625  75.7494212962963 23.6527777777778  76.1302083333333 23.4270833333333  Z M 79.4348958333333 23.384765625  C 79.3804976851852 23.3791232638889  79.3396990740741 23.3763020833333  79.3125 23.3763020833333  L 79.2309027777778 23.3932291666667  L 79.1085069444444 23.3932291666667  C 79.0541087962963 23.4045138888889  78.9997106481482 23.4214409722222  78.9453125 23.4440104166667  C 78.8637152777778 23.4552951388889  78.8229166666667 23.4778645833333  78.8229166666667 23.51171875  C 78.7957175925926 23.5342881944444  78.7821180555556 23.5681423611111  78.7821180555556 23.61328125  C 78.7821180555556 23.6471354166667  78.7957175925926 23.6753472222222  78.8229166666667 23.6979166666667  C 78.8229166666667 23.7204861111111  78.8637152777778 23.7430555555556  78.9453125 23.765625  C 78.9997106481482 23.7881944444444  79.0541087962963 23.8051215277778  79.1085069444444 23.81640625  C 79.1629050925926 23.8276909722222  79.2309027777778 23.8333333333333  79.3125 23.8333333333333  C 79.4212962962963 23.8333333333333  79.5028935185185 23.8276909722222  79.5572916666667 23.81640625  C 79.5572916666667 23.8051215277778  79.5844907407407 23.7938368055556  79.6388888888889 23.7825520833333  L 79.7204861111111 23.765625  C 79.7476851851852 23.7543402777778  79.7884837962963 23.7317708333333  79.8428819444444 23.6979166666667  C 79.8700810185185 23.6753472222222  79.8836805555556 23.6471354166667  79.8836805555556 23.61328125  C 79.8836805555556 23.5681423611111  79.8700810185185 23.5342881944444  79.8428819444444 23.51171875  C 79.8156828703704 23.5004340277778  79.7748842592593 23.4778645833333  79.7204861111111 23.4440104166667  C 79.7204861111111 23.4327256944444  79.6932870370371 23.4214409722222  79.6388888888889 23.41015625  L 79.5572916666667 23.3932291666667  C 79.5300925925926 23.3932291666667  79.4892939814815 23.3904079861111  79.4348958333333 23.384765625  Z M 92.4496527777778 0.643229166666668  C 93.4832175925926 1.07204861111111  94 1.57986111111111  94 2.16666666666667  L 94 23.8333333333333  C 94 24.4201388888889  93.4832175925926 24.9279513888889  92.4496527777778 25.3567708333333  C 91.416087962963 25.7855902777778  90.1921296296296 26  88.7777777777778 26  L 5.22222222222222 26  C 3.80787037037037 26  2.58391203703704 25.7855902777778  1.55034722222222 25.3567708333333  C 0.516782407407407 24.9279513888889  0 24.4201388888889  0 23.8333333333333  L 0 2.16666666666667  C 0 1.57986111111111  0.516782407407407 1.07204861111111  1.55034722222222 0.643229166666668  C 2.58391203703704 0.21440972222222  3.80787037037037 0  5.22222222222222 0  L 88.7777777777778 0  C 90.1921296296296 0  91.416087962963 0.21440972222222  92.4496527777778 0.643229166666668  Z " fill-rule="nonzero" fill="#aaaaaa" stroke="none" transform="matrix(1 0 0 1 255 262 )" />
  </g>
</svg>