<?xml version="1.0" encoding="utf-8"?>
<svg version="1.1" xmlns:xlink="http://www.w3.org/1999/xlink" width="88px" height="26px" xmlns="http://www.w3.org/2000/svg">
  <g transform="matrix(1 0 0 1 -374 -262 )">
    <path d="M 6.22569444444444 7.54947916666667  L 4.54513888888889 9.37760416666667  L 7.94444444444444 9.37760416666667  L 6.22569444444444 7.54947916666667  Z M 22.1909722222222 18.28125  L 28.2638888888889 18.28125  L 31.0902777777778 16.9440104166667  L 28.4166666666667 15.6067708333333  L 22.1909722222222 15.6067708333333  L 22.1909722222222 16.4361979166667  L 27.6145833333333 16.4361979166667  L 27.6145833333333 17.3671875  L 22.1909722222222 17.3671875  L 22.1909722222222 18.28125  Z M 38.0798611111111 15.1497395833333  L 34.2986111111111 16.9609375  L 38.0798611111111 18.8229166666667  L 38.0798611111111 15.1497395833333  Z M 43.7326388888889 16.7747395833333  C 44.7766203703704 16.7747395833333  45.2986111111111 16.5716145833333  45.2986111111111 16.1653645833333  C 45.2986111111111 15.79296875  44.7893518518519 15.6067708333333  43.7708333333333 15.6067708333333  L 40.5625 15.6067708333333  L 40.5625 16.7747395833333  L 43.7326388888889 16.7747395833333  Z M 54.6944444444444 16.6393229166667  C 55.7893518518519 16.6393229166667  56.3368055555556 16.4587673611111  56.3368055555556 16.09765625  C 56.3368055555556 15.7703993055556  55.8020833333333 15.6067708333333  54.7326388888889 15.6067708333333  L 51.6006944444444 15.6067708333333  L 51.6006944444444 16.6393229166667  L 54.6944444444444 16.6393229166667  Z M 44.0763888888889 8.734375  C 45.1712962962963 8.734375  45.71875 8.55946180555555  45.71875 8.20963541666667  C 45.71875 7.88237847222222  45.1840277777778 7.71875  44.1145833333333 7.71875  L 40.9826388888889 7.71875  L 40.9826388888889 8.734375  L 44.0763888888889 8.734375  Z M 64.96875 7.54947916666667  L 63.25 9.37760416666667  L 66.6493055555556 9.37760416666667  L 64.96875 7.54947916666667  Z M 22.5729166666667 6.75390625  L 26.6979166666667 6.75390625  L 26.6979166666667 11.3411458333333  L 24.1770833333333 11.3411458333333  L 24.1770833333333 7.75260416666667  L 20.5868055555556 11.3411458333333  L 18.4097222222222 11.3411458333333  L 14.8194444444444 7.75260416666667  L 14.8194444444444 11.3411458333333  L 9.77777777777778 11.3411458333333  L 8.82291666666667 10.3255208333333  L 3.66666666666667 10.3255208333333  L 2.71180555555556 11.3411458333333  L 0.0381944444444444 11.3411458333333  L 4.46875 6.75390625  L 8.13541666666667 6.75390625  L 12.3368055555556 11.1041666666667  L 12.3368055555556 6.75390625  L 16.3854166666667 6.75390625  L 19.6319444444444 9.86848958333333  L 22.5729166666667 6.75390625  Z M 43.7708333333333 14.6588541666667  C 46.5462962962963 14.6588541666667  47.9340277777778 15.1610243055556  47.9340277777778 16.1653645833333  C 47.9340277777778 16.3910590277778  47.8640046296296 16.5885416666667  47.7239583333333 16.7578125  C 47.583912037037 16.9270833333333  47.4056712962963 17.0681423611111  47.1892361111111 17.1809895833333  C 46.9728009259259 17.2938368055556  46.6863425925926 17.3869357638889  46.3298611111111 17.4602864583333  C 45.9733796296296 17.5336371527778  45.6423611111111 17.5900607638889  45.3368055555556 17.6295572916667  C 45.03125 17.6690538194444  44.6302083333333 17.6944444444444  44.1336805555556 17.7057291666667  C 43.6371527777778 17.7170138888889  43.2361111111111 17.72265625  42.9305555555556 17.72265625  C 42.625 17.72265625  42.2112268518519 17.7198350694444  41.6892361111111 17.7141927083333  C 41.1672453703704 17.7085503472222  40.7916666666667 17.7057291666667  40.5625 17.7057291666667  L 40.5625 19.24609375  L 35.75 19.24609375  L 32.6944444444444 17.72265625  L 29.5243055555556 19.24609375  L 19.7465277777778 19.24609375  L 19.7465277777778 14.6588541666667  L 29.6770833333333 14.6588541666667  L 32.7326388888889 16.1653645833333  L 35.8645833333333 14.6588541666667  L 43.7708333333333 14.6588541666667  Z M 31.0138888888889 10.3932291666667  L 36.8194444444444 10.3932291666667  L 36.8194444444444 11.3411458333333  L 28.53125 11.3411458333333  L 28.53125 6.75390625  L 36.8194444444444 6.75390625  L 36.8194444444444 7.71875  L 31.0138888888889 7.71875  L 31.0138888888889 8.54817708333333  L 36.6666666666667 8.54817708333333  L 36.6666666666667 9.47916666666667  L 31.0138888888889 9.47916666666667  L 31.0138888888889 10.3932291666667  Z M 84.3715277777778 20.1432291666667  C 85.8993055555556 20.1432291666667  87.1087962962963 20.0473090277778  88 19.85546875  L 88 23.7317708333333  C 88 24.3524305555556  87.509837962963 24.8856336805556  86.5295138888889 25.3313802083333  C 85.5491898148148 25.7771267361111  84.3587962962963 26  82.9583333333333 26  L 5.04166666666667 26  C 3.6412037037037 26  2.45081018518519 25.7771267361111  1.47048611111111 25.3313802083333  C 0.490162037037037 24.8856336805556  0 24.3524305555556  0 23.7317708333333  L 0 12.2552083333333  L 4.23958333333333 12.2552083333333  L 5.19444444444444 11.22265625  L 7.29513888888889 11.22265625  L 8.25 12.2552083333333  L 16.5763888888889 12.2552083333333  L 16.5763888888889 11.4765625  L 17.3020833333333 12.2552083333333  L 21.6180555555556 12.2552083333333  L 22.3819444444444 11.4596354166667  L 22.3819444444444 12.2552083333333  L 43.0451388888889 12.2552083333333  L 43.0451388888889 10.5794270833333  L 43.4270833333333 10.5625  C 43.681712962963 10.5625  43.8090277777778 10.6414930555556  43.8090277777778 10.7994791666667  L 43.8090277777778 12.2552083333333  L 54.4652777777778 12.2552083333333  L 54.4652777777778 11.8658854166667  C 55.0509259259259 12.0013020833333  55.7511574074074 12.1028645833333  56.5659722222222 12.1705729166667  C 57.380787037037 12.23828125  58.0491898148148 12.2749565972222  58.5711805555556 12.2805989583333  C 59.0931712962963 12.2862413194444  59.8952546296296 12.2834201388889  60.9774305555556 12.2721354166667  C 62.0596064814815 12.2608506944444  62.7152777777778 12.2552083333333  62.9444444444444 12.2552083333333  L 63.8993055555556 11.22265625  L 66.0381944444444 11.22265625  L 66.9930555555556 12.2552083333333  L 75.6631944444444 12.2552083333333  L 75.6631944444444 11.2734375  L 76.9618055555556 12.2552083333333  L 83.9131944444444 12.2552083333333  L 83.9131944444444 5.85677083333333  L 77.0381944444444 5.85677083333333  L 77.0381944444444 6.6015625  L 76.0833333333333 5.85677083333333  L 69.0173611111111 5.85677083333333  L 69.0173611111111 6.6015625  L 68.1388888888889 5.85677083333333  L 58.6284722222222 5.85677083333333  C 56.8715277777778 5.85677083333333  55.4837962962963 5.98090277777778  54.4652777777778 6.22916666666667  L 54.4652777777778 5.85677083333333  L 47.8958333333333 5.85677083333333  L 47.8958333333333 6.22916666666667  C 47.2847222222222 5.98090277777778  46.3553240740741 5.85677083333333  45.1076388888889 6  L 21.1215277777778 6  L 19.4791666666667 7.49869791666667  L 17.8368055555556 5.85677083333333  L 10.2743055555556 5.85677083333333  L 10.2743055555556 6.6015625  L 9.43402777777778 5.85677083333333  L 2.97916666666667 5.85677083333333  L 0 8.88671875  L 0 2.26822916666667  C 0 1.64756944444444  0.490162037037037 1.11436631944444  1.47048611111111 0.668619791666668  C 2.45081018518519 0.222873263888887  3.6412037037037 0  5.04166666666667 0  L 82.9583333333333 0  C 84.3587962962963 0  85.5491898148148 0.222873263888887  86.5295138888889 0.668619791666668  C 87.509837962963 1.11436631944444  88 1.64756944444444  88 2.26822916666667  L 88 13.7447916666667  L 83.4166666666667 13.7447916666667  C 82.1180555555556 13.7447916666667  81.0868055555556 13.8689236111111  80.3229166666667 14.1171875  L 80.3229166666667 13.7447916666667  L 73.5625 13.7447916666667  C 72.1620370370371 13.7447916666667  71.1689814814815 13.8689236111111  70.5833333333333 14.1171875  L 70.5833333333333 13.7447916666667  L 58.5138888888889 13.7447916666667  L 58.5138888888889 14.1171875  C 57.724537037037 13.8689236111111  56.6168981481482 13.7447916666667  55.1909722222222 13.7447916666667  L 47.2083333333333 13.7447916666667  L 47.2083333333333 14.1171875  C 46.6226851851852 13.8689236111111  45.4641203703704 13.7447916666667  43.7326388888889 13.7447916666667  L 34.7951388888889 13.7447916666667  L 32.7326388888889 14.7265625  L 30.8229166666667 13.7447916666667  L 17.4930555555556 13.7447916666667  L 17.4930555555556 20  L 30.59375 20  L 32.6944444444444 19.14453125  L 34.6805555555556 20.1432291666667  L 42.7395833333333 20.1432291666667  L 42.7395833333333 18.63671875  L 43.5416666666667 18.63671875  C 45.0439814814815 18.63671875  46.1898148148148 18.5633680555556  46.9791666666667 18.4166666666667  L 46.9791666666667 20.1432291666667  L 53.625 20.1432291666667  L 53.625 18.4674479166667  L 53.9305555555556 18.4674479166667  C 54.1342592592593 18.4674479166667  54.2615740740741 18.4787326388889  54.3125 18.5013020833333  C 54.3634259259259 18.5238715277778  54.3888888888889 18.5802951388889  54.3888888888889 18.6705729166667  L 54.3888888888889 20  L 74.59375 20  C 76.0451388888889 20.1432291666667  77.1655092592593 20.0078125  77.9548611111111 19.7369791666667  L 77.9548611111111 20.1432291666667  L 84.3715277777778 20.1432291666667  Z M 57.9409722222222 14.9127604166667  C 58.6793981481482 15.08203125  59.0486111111111 15.4092881944444  59.0486111111111 15.89453125  C 59.0486111111111 16.1540798611111  58.8958333333333 16.3967013888889  58.5902777777778 16.6223958333333  C 58.2847222222222 16.8480902777778  57.8518518518519 17.01171875  57.2916666666667 17.11328125  C 57.9282407407407 17.21484375  58.3611111111111 17.3615451388889  58.5902777777778 17.5533854166667  C 58.8194444444444 17.7452256944444  58.9340277777778 18.0047743055556  58.9340277777778 18.33203125  L 58.9340277777778 19.24609375  L 56.4513888888889 19.24609375  L 56.4513888888889 18.484375  C 56.4513888888889 18.1119791666667  56.2986111111111 17.8665364583333  55.9930555555556 17.748046875  C 55.6875 17.6295572916667  55.1018518518519 17.5703125  54.2361111111111 17.5703125  L 51.6006944444444 17.5703125  L 51.6006944444444 19.24609375  L 49.1180555555556 19.24609375  L 49.1180555555556 14.6588541666667  L 55 14.6588541666667  C 56.2222222222222 14.6588541666667  57.2025462962963 14.7434895833333  57.9409722222222 14.9127604166667  Z M 47.3611111111111 7.01627604166667  C 48.099537037037 7.17990451388889  48.46875 7.50434027777778  48.46875 7.98958333333333  C 48.46875 8.26041666666667  48.3096064814815 8.50868055555555  47.9913194444444 8.734375  C 47.6730324074074 8.96006944444444  47.2465277777778 9.12369791666667  46.7118055555556 9.22526041666667  C 47.3738425925926 9.32682291666667  47.8130787037037 9.470703125  48.0295138888889 9.65690104166667  C 48.2459490740741 9.84309895833333  48.3541666666667 10.10546875  48.3541666666667 10.4440104166667  L 48.3541666666667 11.3411458333333  L 45.8715277777778 11.3411458333333  C 45.8715277777778 11.2395833333333  45.8778935185185 11.0900607638889  45.890625 10.892578125  C 45.9033564814815 10.6950954861111  45.9033564814815 10.5540364583333  45.890625 10.4694010416667  C 45.8778935185185 10.384765625  45.8396990740741 10.2803819444444  45.7760416666667 10.15625  C 45.7123842592593 10.0321180555556  45.6041666666667 9.94184027777778  45.4513888888889 9.88541666666667  C 45.2986111111111 9.82899305555556  45.0758101851852 9.78103298611111  44.7829861111111 9.74153645833333  C 44.490162037037 9.70203993055556  44.1145833333333 9.68229166666667  43.65625 9.68229166666667  L 40.9826388888889 9.68229166666667  L 40.9826388888889 11.3411458333333  L 38.5381944444444 11.3411458333333  L 38.5381944444444 6.75390625  L 44.3819444444444 6.77083333333333  C 45.6296296296296 6.77083333333333  46.6226851851852 6.85264756944444  47.3611111111111 7.01627604166667  Z M 62.90625 18.28125  L 68.6736111111111 18.2981770833333  L 68.6736111111111 19.24609375  L 60.4236111111111 19.24609375  L 60.4236111111111 14.6588541666667  L 68.6736111111111 14.6588541666667  L 68.6736111111111 15.6067708333333  L 62.90625 15.6067708333333  L 62.90625 16.4361979166667  L 68.5590277777778 16.4361979166667  L 68.5590277777778 17.3671875  L 62.90625 17.3671875  L 62.90625 18.28125  Z M 49.8819444444444 6.75390625  L 52.4027777777778 6.75390625  L 52.4027777777778 11.3411458333333  L 49.8819444444444 11.3411458333333  L 49.8819444444444 6.75390625  Z M 78.203125 16.8678385416667  C 78.6487268518519 17.0766059027778  78.8715277777778 17.3841145833333  78.8715277777778 17.7903645833333  C 78.8715277777778 18.7608506944444  77.5729166666667 19.24609375  74.9756944444444 19.24609375  L 70.1631944444444 19.24609375  L 70.1631944444444 18.2643229166667  L 74.9756944444444 18.2643229166667  C 75.8414351851852 18.2643229166667  76.2743055555556 18.1232638888889  76.2743055555556 17.8411458333333  C 76.2743055555556 17.6605902777778  76.0578703703704 17.5421006944444  75.625 17.4856770833333  C 75.1921296296296 17.4292534722222  74.6637731481482 17.4010416666667  74.0399305555556 17.4010416666667  C 73.416087962963 17.4010416666667  72.7858796296296 17.3812934027778  72.1493055555556 17.341796875  C 71.5127314814815 17.3023003472222  70.9780092592593 17.1753472222222  70.5451388888889 16.9609375  C 70.1122685185185 16.7465277777778  69.8958333333333 16.4361979166667  69.8958333333333 16.0299479166667  C 69.8958333333333 15.58984375  70.2268518518519 15.2513020833333  70.8888888888889 15.0143229166667  C 71.5509259259259 14.77734375  72.3912037037037 14.6588541666667  73.4097222222222 14.6588541666667  L 78.375 14.6588541666667  L 78.375 15.6236979166667  L 73.8298611111111 15.6236979166667  C 72.9131944444444 15.6236979166667  72.4548611111111 15.7647569444444  72.4548611111111 16.046875  C 72.4548611111111 16.2274305555556  72.6776620370371 16.3430989583333  73.1232638888889 16.3938802083333  C 73.5688657407408 16.4446614583333  74.103587962963 16.4672309027778  74.7274305555556 16.4615885416667  C 75.3512731481482 16.4559461805556  75.9751157407407 16.4700520833333  76.5989583333333 16.50390625  C 77.2228009259259 16.5377604166667  77.7575231481482 16.6590711805556  78.203125 16.8678385416667  Z M 85.8420138888889 16.50390625  C 86.8478009259259 16.5377604166667  87.5671296296296 16.6844618055556  88 16.9440104166667  L 88 18.6536458333333  C 87.3888888888889 19.0486111111111  86.2685185185185 19.24609375  84.6388888888889 19.24609375  L 79.8645833333333 19.24609375  L 79.8645833333333 18.2643229166667  L 84.6388888888889 18.2643229166667  C 85.4791666666667 18.2643229166667  85.8993055555556 18.1232638888889  85.8993055555556 17.8411458333333  C 85.8993055555556 17.6944444444444  85.7401620370371 17.5872395833333  85.421875 17.51953125  C 85.103587962963 17.4518229166667  84.7089120370371 17.4207899305556  84.2378472222222 17.4264322916667  C 83.7667824074074 17.4320746527778  83.2575231481482 17.4207899305556  82.7100694444444 17.392578125  C 82.1626157407408 17.3643663194444  81.6533564814815 17.3192274305556  81.1822916666667 17.2571614583333  C 80.7112268518519 17.1950954861111  80.3165509259259 17.0596788194444  79.9982638888889 16.8509114583333  C 79.6799768518519 16.6421440972222  79.5208333333333 16.3684895833333  79.5208333333333 16.0299479166667  C 79.5208333333333 15.58984375  79.8582175925926 15.2513020833333  80.5329861111111 15.0143229166667  C 81.2077546296296 14.77734375  82.0543981481482 14.6588541666667  83.0729166666667 14.6588541666667  L 88 14.6588541666667  L 88 15.6236979166667  L 83.4930555555556 15.6236979166667  C 82.5763888888889 15.6236979166667  82.1180555555556 15.7647569444444  82.1180555555556 16.046875  C 82.1180555555556 16.2725694444444  82.4872685185185 16.3967013888889  83.2256944444444 16.4192708333333  C 83.9641203703704 16.4418402777778  84.8362268518519 16.4700520833333  85.8420138888889 16.50390625  Z M 79.1770833333333 6.77083333333333  L 81.6979166666667 6.77083333333333  L 81.6979166666667 11.3411458333333  L 78.1840277777778 11.3411458333333  L 73.5243055555556 7.90494791666667  L 73.5243055555556 11.3411458333333  L 68.4826388888889 11.3411458333333  L 67.4895833333333 10.3255208333333  L 62.3715277777778 10.3255208333333  L 61.4166666666667 11.3411458333333  L 58.5520833333333 11.3411458333333  C 55.2673611111111 11.3411458333333  53.625 10.5907118055556  53.625 9.08984375  C 53.625 7.53255208333333  55.318287037037 6.75390625  58.7048611111111 6.75390625  L 61.1111111111111 6.75390625  L 61.1111111111111 7.75260416666667  C 60.9328703703704 7.75260416666667  60.5763888888889 7.74696180555555  60.0416666666667 7.73567708333333  C 59.5069444444445 7.72439236111111  59.1440972222222 7.72157118055555  58.953125 7.72721354166667  C 58.7621527777778 7.73285590277778  58.4693287037037 7.744140625  58.0746527777778 7.76106770833333  C 57.6799768518519 7.77799479166667  57.40625 7.81467013888889  57.2534722222222 7.87109375  C 57.1006944444444 7.92751736111111  56.916087962963 8.00368923611111  56.6996527777778 8.099609375  C 56.4832175925926 8.19552951388889  56.3368055555556 8.32530381944444  56.2604166666667 8.48893229166667  C 56.1840277777778 8.65256076388889  56.1458333333333 8.84157986111111  56.1458333333333 9.05598958333333  C 56.1458333333333 9.48480902777778  56.3177083333333 9.81206597222222  56.6614583333333 10.0377604166667  C 57.0052083333333 10.2634548611111  57.6354166666667 10.3763020833333  58.5520833333333 10.3763020833333  L 59.6597222222222 10.3763020833333  L 63.1736111111111 6.77083333333333  L 66.8784722222222 6.77083333333333  L 71.0416666666667 11.1041666666667  L 71.0416666666667 6.77083333333333  L 74.8229166666667 6.77083333333333  L 79.1770833333333 9.953125  L 79.1770833333333 6.77083333333333  Z " fill-rule="nonzero" fill="#aaaaaa" stroke="none" transform="matrix(1 0 0 1 374 262 )" />
  </g>
</svg>