<?xml version="1.0" encoding="utf-8"?>
<svg version="1.1" xmlns:xlink="http://www.w3.org/1999/xlink" width="35px" height="38px" xmlns="http://www.w3.org/2000/svg">
  <g transform="matrix(1 0 0 1 -362 -403 )">
    <path d="M 12.5035511363636 31.4440104166667  C 12.6526988636364 31.2955729166667  12.7272727272727 31.1059027777778  13 30.875  L 13 13.4583333333333  C 12.7272727272727 13.2274305555556  12.6526988636364 13.0377604166667  12.5035511363636 12.8893229166667  C 12.3544034090909 12.7408854166667  12.1638257575758 12.6666666666667  11.9318181818182 12.6666666666667  L 10.3409090909091 12.6666666666667  C 10.1089015151515 12.6666666666667  9.91832386363637 12.7408854166667  9.76917613636364 12.8893229166667  C 9.62002840909091 13.0377604166667  9.54545454545455 13.2274305555556  10 13.4583333333333  L 10 30.875  C 9.54545454545455 31.1059027777778  9.62002840909091 31.2955729166667  9.76917613636364 31.4440104166667  C 9.91832386363637 31.5924479166667  10.1089015151515 31.6666666666667  10.3409090909091 31.6666666666667  L 11.9318181818182 31.6666666666667  C 12.1638257575758 31.6666666666667  12.3544034090909 31.5924479166667  12.5035511363636 31.4440104166667  Z M 18.8671875 31.4440104166667  C 19.0163352272727 31.2955729166667  19.0909090909091 31.1059027777778  19 30.875  L 19 13.4583333333333  C 19.0909090909091 13.2274305555556  19.0163352272727 13.0377604166667  18.8671875 12.8893229166667  C 18.7180397727273 12.7408854166667  18.5274621212121 12.6666666666667  18.2954545454545 12.6666666666667  L 16.7045454545455 12.6666666666667  C 16.4725378787879 12.6666666666667  16.2819602272727 12.7408854166667  16.1328125 12.8893229166667  C 15.9836647727273 13.0377604166667  15.9090909090909 13.2274305555556  16 13.4583333333333  L 16 30.875  C 15.9090909090909 31.1059027777778  15.9836647727273 31.2955729166667  16.1328125 31.4440104166667  C 16.2819602272727 31.5924479166667  16.4725378787879 31.6666666666667  16.7045454545455 31.6666666666667  L 18.2954545454545 31.6666666666667  C 18.5274621212121 31.6666666666667  18.7180397727273 31.5924479166667  18.8671875 31.4440104166667  Z M 25.2308238636364 31.4440104166667  C 25.3799715909091 31.2955729166667  25.4545454545455 31.1059027777778  25 30.875  L 25 13.4583333333333  C 25.4545454545455 13.2274305555556  25.3799715909091 13.0377604166667  25.2308238636364 12.8893229166667  C 25.0816761363636 12.7408854166667  24.8910984848485 12.6666666666667  24.6590909090909 12.6666666666667  L 23.0681818181818 12.6666666666667  C 22.8361742424242 12.6666666666667  22.6455965909091 12.7408854166667  22.4964488636364 12.8893229166667  C 22.3473011363636 13.0377604166667  22.2727272727273 13.2274305555556  22 13.4583333333333  L 22 30.875  C 22.2727272727273 31.1059027777778  22.3473011363636 31.2955729166667  22.4964488636364 31.4440104166667  C 22.6455965909091 31.5924479166667  22.8361742424242 31.6666666666667  23.0681818181818 31.6666666666667  L 24.6590909090909 31.6666666666667  C 24.8910984848485 31.6666666666667  25.0816761363636 31.5924479166667  25.2308238636364 31.4440104166667  Z M 13.1498579545455 3.43880208333333  L 11.9318181818182 7  L 23.0681818181818 7  L 21.875 3.43880208333333  C 21.7589962121212 3.29036458333333  21.618134469697 3.19965277777778  21.4524147727273 3.16666666666667  L 13.5724431818182 3.16666666666667  C 13.4067234848485 3.19965277777778  13.2658617424242 3.29036458333333  13.1498579545455 3.43880208333333  Z M 34.7762784090909 6.55598958333333  C 34.9254261363636 6.70442708333333  35 6.89409722222222  35 7.125  L 35 8.70833333333333  C 35 8.93923611111111  34.9254261363636 9.12890625  34.7762784090909 9.27734375  C 34.6271306818182 9.42578125  34.436553030303 9.5  34.2045454545455 9.5  L 31.8181818181818 9.5  L 31.8181818181818 32.953125  C 31.8181818181818 34.3220486111111  31.428740530303 35.5054253472222  30.6498579545455 36.5032552083333  C 29.8709753787879 37.5010850694444  28.9346590909091 38  27.8409090909091 38  L 7.15909090909091 38  C 6.06534090909091 38  5.12902462121212 37.517578125  4.35014204545455 36.552734375  C 3.57125946969697 35.587890625  3.18181818181818 34.4210069444444  3.18181818181818 33.0520833333333  L 3.18181818181818 9.5  L 0.795454545454546 9.5  C 0.56344696969697 9.5  0.372869318181818 9.42578125  0.223721590909091 9.27734375  C 0.0745738636363636 9.12890625  0 8.93923611111111  0 8.70833333333333  L 0 7.125  C 0 6.89409722222222  0.0745738636363636 6.70442708333333  0.223721590909091 6.55598958333333  C 0.372869318181818 6.40755208333333  0.56344696969697 6.33333333333333  0.795454545454546 6.33333333333333  L 8.4765625 6.33333333333333  L 10.2166193181818 2.20182291666667  C 10.4651988636364 1.59157986111111  10.9126420454545 1.07204861111111  11.5589488636364 0.643229166666668  C 12.2052556818182 0.21440972222222  12.8598484848485 0  13.5227272727273 0  L 21.4772727272727 0  C 22.1401515151515 0  22.7947443181818 0.21440972222222  23.4410511363636 0.643229166666668  C 24.0873579545455 1.07204861111111  24.5348011363636 1.59157986111111  24.7833806818182 2.20182291666667  L 26.5234375 6.33333333333333  L 34.2045454545455 6.33333333333333  C 34.436553030303 6.33333333333333  34.6271306818182 6.40755208333333  34.7762784090909 6.55598958333333  Z " fill-rule="nonzero" fill="#aaaaaa" stroke="none" transform="matrix(1 0 0 1 362 403 )" />
  </g>
</svg>