<?xml version="1.0" encoding="utf-8"?>
<svg version="1.1" xmlns:xlink="http://www.w3.org/1999/xlink" width="50px" height="50px" xmlns="http://www.w3.org/2000/svg">
  <g transform="matrix(1 0 0 1 -809 -1419 )">
    <path d="M 38.2486979166667 19.23828125  C 39.6158854166667 18.26171875  40.7552083333333 17.0789930555556  41.6666666666667 15.6901041666667  C 40.4513888888889 16.2326388888889  39.1384548611111 16.6015625  37.7278645833333 16.796875  C 39.2035590277778 15.9288194444444  40.2126736111111 14.6592881944444  40.7552083333333 12.98828125  C 39.3446180555556 13.8129340277778  37.890625 14.3663194444444  36.3932291666667 14.6484375  C 35.0694444444445 13.2161458333333  33.4092881944445 12.5  31.4127604166667 12.5  C 29.5247395833333 12.5  27.9134114583333 13.1673177083333  26.5787760416667 14.501953125  C 25.244140625 15.8365885416667  24.5768229166667 17.4479166666667  24.5768229166667 19.3359375  C 24.5768229166667 19.9652777777778  24.6310763888889 20.4861111111111  24.7395833333333 20.8984375  C 21.9401041666667 20.7465277777778  19.3142361111111 20.0412326388889  16.8619791666667 18.7825520833333  C 14.4097222222222 17.5238715277778  12.3263888888889 15.8420138888889  10.6119791666667 13.7369791666667  C 9.98263888888889 14.8220486111111  9.66796875 15.9722222222222  9.66796875 17.1875  C 9.66796875 19.6614583333333  10.6553819444444 21.5603298611111  12.6302083333333 22.8841145833333  C 11.6102430555556 22.8624131944444  10.5251736111111 22.5802951388889  9.375 22.0377604166667  L 9.375 22.1028645833333  C 9.375 23.73046875  9.91753472222222 25.1790364583333  11.0026041666667 26.4485677083333  C 12.0876736111111 27.7180989583333  13.4223090277778 28.5047743055556  15.0065104166667 28.80859375  C 14.3771701388889 28.9822048611111  13.8237847222222 29.0690104166667  13.3463541666667 29.0690104166667  C 13.0642361111111 29.0690104166667  12.6410590277778 29.0256076388889  12.0768229166667 28.9388020833333  C 12.5325520833333 30.3059895833333  13.3409288194444 31.4344618055555  14.501953125 32.32421875  C 15.6629774305556 33.2139756944444  16.9813368055556 33.6697048611111  18.45703125 33.69140625  C 15.9396701388889 35.64453125  13.1076388888889 36.62109375  9.9609375 36.62109375  C 9.39670138888889 36.62109375  8.85416666666667 36.5885416666667  8.33333333333333 36.5234375  C 11.5451388888889 38.5633680555556  15.0390625 39.5833333333333  18.8151041666667 39.5833333333333  C 21.2456597222222 39.5833333333333  23.5243055555556 39.1981336805556  25.6510416666667 38.427734375  C 27.7777777777778 37.6573350694444  29.6006944444444 36.6265190972222  31.1197916666667 35.3352864583333  C 32.6388888888889 34.0440538194444  33.9463975694445 32.5575086805556  35.0423177083333 30.8756510416667  C 36.1382378472222 29.1937934027778  36.9520399305556 27.4359809027778  37.4837239583333 25.6022135416667  C 38.0154079861111 23.7684461805556  38.28125 21.9401041666667  38.28125 20.1171875  C 38.28125 19.7265625  38.2703993055556 19.43359375  38.2486979166667 19.23828125  Z M 47.2493489583333 2.75065104166667  C 49.0831163194444 4.58441840277777  50 6.79253472222222  50 9.375  L 50 40.625  C 50 43.2074652777778  49.0831163194444 45.4155815972222  47.2493489583333 47.2493489583333  C 45.4155815972222 49.0831163194444  43.2074652777778 50  40.625 50  L 9.375 50  C 6.79253472222222 50  4.58441840277778 49.0831163194444  2.75065104166667 47.2493489583333  C 0.916883680555555 45.4155815972222  0 43.2074652777778  0 40.625  L 0 9.375  C 0 6.79253472222222  0.916883680555555 4.58441840277777  2.75065104166667 2.75065104166667  C 4.58441840277778 0.916883680555552  6.79253472222222 0  9.375 0  L 40.625 0  C 43.2074652777778 0  45.4155815972222 0.916883680555552  47.2493489583333 2.75065104166667  Z " fill-rule="nonzero" fill="#000000" stroke="none" transform="matrix(1 0 0 1 809 1419 )" />
  </g>
</svg>