<?xml version="1.0" encoding="utf-8"?>
<svg version="1.1" xmlns:xlink="http://www.w3.org/1999/xlink" width="36px" height="46px" xmlns="http://www.w3.org/2000/svg">
  <g transform="matrix(1 0 0 1 -968 -64 )">
    <path d="M 35.1515151515151 34.3838383838384  C 35.7171717171717 35.1066217732884  36 35.9842873176206  36 37.016835016835  C 36 38.0493827160494  35.7171717171717 38.9270482603816  35.1515151515151 39.6498316498316  L 31.030303030303 44.9158249158249  C 30.4646464646465 45.638608305275  29.7777777777778 46  28.969696969697 46  C 28.1616161616162 46  27.4747474747475 45.638608305275  26.9090909090909 44.9158249158249  L 18 33.5319865319865  L 9.09090909090909 44.9158249158249  C 8.52525252525253 45.638608305275  7.83838383838384 46  7.03030303030303 46  C 6.22222222222222 46  5.53535353535354 45.638608305275  4.96969696969697 44.9158249158249  L 0.848484848484849 39.6498316498316  C 0.282828282828283 38.9270482603816  0 38.0493827160494  0 37.016835016835  C 0 35.9842873176206  0.282828282828283 35.1066217732884  0.848484848484849 34.3838383838384  L 9.75757575757576 23  L 0.848484848484849 11.6161616161616  C 0.282828282828283 10.8933782267116  0 10.0157126823794  0 8.98316498316498  C 0 7.95061728395062  0.282828282828283 7.0729517396184  0.848484848484849 6.35016835016835  L 4.96969696969697 1.08417508417508  C 5.53535353535354 0.361391694725026  6.22222222222222 0  7.03030303030303 0  C 7.83838383838384 0  8.52525252525253 0.361391694725026  9.09090909090909 1.08417508417508  L 18 12.4680134680135  L 26.9090909090909 1.08417508417508  C 27.4747474747475 0.361391694725026  28.1616161616162 0  28.969696969697 0  C 29.7777777777778 0  30.4646464646465 0.361391694725026  31.030303030303 1.08417508417508  L 35.1515151515151 6.35016835016835  C 35.7171717171717 7.0729517396184  36 7.95061728395062  36 8.98316498316498  C 36 10.0157126823794  35.7171717171717 10.8933782267116  35.1515151515151 11.6161616161616  L 26.2424242424242 23  L 35.1515151515151 34.3838383838384  Z " fill-rule="nonzero" fill="#ffffff" stroke="none" transform="matrix(1 0 0 1 968 64 )" />
  </g>
</svg>