<?xml version="1.0" encoding="utf-8"?>
<svg version="1.1" xmlns:xlink="http://www.w3.org/1999/xlink" width="20px" height="17px" xmlns="http://www.w3.org/2000/svg">
  <g transform="matrix(1 0 0 1 -404 -2663 )">
    <path d="M 19.3269230769231 6.09514807813485  C 19.775641025641 6.15942028985507  20 6.32367149758454  20 6.58790170132325  C 20 6.74501155219492  19.8958333333333 6.91640411678219  19.6875 7.10207939508507  L 15.3245192307692 10.8941398865785  L 16.3581730769231 16.2501575299307  C 16.3661858974359 16.3001470279353  16.3701923076923 16.3715605965133  16.3701923076923 16.4643982356648  C 16.3701923076923 16.6143667296786  16.328125 16.7411258139046  16.2439903846154 16.8446754883428  C 16.1598557692308 16.9482251627809  16.0376602564103 17  15.8774038461538 17  C 15.7251602564103 17  15.5649038461538 16.9571518588532  15.3966346153846 16.8714555765595  L 10 14.3434152488973  L 4.60336538461538 16.8714555765595  C 4.42708333333333 16.9571518588532  4.26682692307692 17  4.12259615384615 17  C 3.95432692307692 17  3.828125 16.9482251627809  3.74399038461538 16.8446754883428  C 3.65985576923077 16.7411258139046  3.61778846153846 16.6143667296786  3.61778846153846 16.4643982356648  C 3.61778846153846 16.421550094518  3.62580128205128 16.3501365259399  3.64182692307692 16.2501575299307  L 4.67548076923077 10.8941398865785  L 0.300480769230769 7.10207939508507  C 0.100160256410256 6.90926275992439  0 6.73787019533711  0 6.58790170132325  C 0 6.32367149758454  0.224358974358974 6.15942028985507  0.673076923076923 6.09514807813485  L 6.70673076923077 5.31316950220542  L 9.41105769230769 0.439193446754883  C 9.56330128205128 0.14639781558496  9.75961538461539 0  10 0  C 10.2403846153846 0  10.4366987179487 0.14639781558496  10.5889423076923 0.439193446754883  L 13.2932692307692 5.31316950220542  L 19.3269230769231 6.09514807813485  Z " fill-rule="nonzero" fill="#aaaaaa" stroke="none" transform="matrix(1 0 0 1 404 2663 )" />
  </g>
</svg>