<?xml version="1.0" encoding="utf-8"?>
<svg version="1.1" xmlns:xlink="http://www.w3.org/1999/xlink" width="20px" height="21px" xmlns="http://www.w3.org/2000/svg">
  <g transform="matrix(1 0 0 1 -16 -3447 )">
    <path d="M 12.1028645833333 11.6279296875  C 12.4717881944444 10.7210286458333  12.65625 9.79361979166667  12.65625 8.845703125  C 12.65625 7.861328125  12.4240451388889 7.09114583333333  11.9596354166667 6.53515625  C 11.4952256944444 5.97916666666667  10.8550347222222 5.701171875  10.0390625 5.701171875  C 9.4921875 5.701171875  8.95399305555556 5.84016927083333  8.42447916666667 6.1181640625  C 7.89496527777778 6.39615885416667  7.41753472222222 6.78125  6.9921875 7.2734375  C 6.56684027777778 7.765625  6.22178819444445 8.38997395833333  5.95703125 9.146484375  C 5.69227430555556 9.90299479166666  5.55989583333333 10.7233072916667  5.55989583333333 11.607421875  C 5.55989583333333 12.6282552083333  5.79210069444445 13.4166666666667  6.25651041666667 13.97265625  C 6.72092013888889 14.5286458333333  7.37413194444445 14.806640625  8.21614583333333 14.806640625  C 9.04947916666667 14.806640625  9.81336805555556 14.5035807291667  10.5078125 13.8974609375  C 11.2022569444444 13.2913411458333  11.7339409722222 12.5348307291667  12.1028645833333 11.6279296875  Z M 17.2395833333333 2.8984375  C 19.0798611111111 4.83072916666667  20 7.36458333333333  20 10.5  C 20 11.51171875  19.8394097222222 12.4095052083333  19.5182291666667 13.193359375  C 19.1970486111111 13.9772135416667  18.76953125 14.5924479166667  18.2356770833333 15.0390625  C 17.7018229166667 15.4856770833333  17.1310763888889 15.8251953125  16.5234375 16.0576171875  C 15.9157986111111 16.2900390625  15.2864583333333 16.4153645833333  14.6354166666667 16.43359375  C 14.5833333333333 16.43359375  14.5160590277778 16.4358723958333  14.43359375 16.4404296875  C 14.3511284722222 16.4449869791667  14.2795138888889 16.447265625  14.21875 16.447265625  C 13.3940972222222 16.447265625  12.7777777777778 16.2057291666667  12.3697916666667 15.72265625  C 12.1267361111111 15.421875  11.9835069444444 15.0436197916667  11.9401041666667 14.587890625  C 11.4887152777778 15.189453125  10.91796875 15.6907552083333  10.2278645833333 16.091796875  C 9.53776041666667 16.4928385416667  8.78472222222222 16.693359375  7.96875 16.693359375  C 6.57118055555556 16.693359375  5.48828125 16.2581380208333  4.72005208333333 15.3876953125  C 3.95182291666667 14.5172526041667  3.56770833333333 13.2890625  3.56770833333333 11.703125  C 3.56770833333333 10.2721354166667  3.85416666666667 8.95052083333333  4.42708333333333 7.73828125  C 5 6.52604166666667  5.77690972222222 5.56673177083333  6.7578125 4.8603515625  C 7.73871527777778 4.15397135416667  8.80642361111111 3.80078125  9.9609375 3.80078125  C 10.7161458333333 3.80078125  11.3888888888889 3.96256510416667  11.9791666666667 4.2861328125  C 12.5694444444444 4.60970052083333  13.0295138888889 5.06315104166667  13.359375 5.646484375  L 13.3854166666667 5.38671875  L 13.5286458333333 4.62109375  C 13.5373263888889 4.56640625  13.5611979166667 4.51171875  13.6002604166667 4.45703125  C 13.6393229166667 4.40234375  13.6805555555556 4.375  13.7239583333333 4.375  L 15.2604166666667 4.375  C 15.3038194444444 4.375  15.3602430555556 4.42513020833333  15.4296875 4.525390625  C 15.4730902777778 4.57096354166667  15.4861111111111 4.64388020833333  15.46875 4.744140625  L 13.90625 13.138671875  C 13.8628472222222 13.357421875  13.8411458333333 13.576171875  13.8411458333333 13.794921875  C 13.8411458333333 14.150390625  13.8953993055556 14.3873697916667  14.00390625 14.505859375  C 14.1124131944444 14.6243489583333  14.3055555555556 14.68359375  14.5833333333333 14.68359375  C 14.8263888888889 14.6744791666667  15.0737847222222 14.6494140625  15.3255208333333 14.6083984375  C 15.5772569444444 14.5673828125  15.8940972222222 14.4580078125  16.2760416666667 14.2802734375  C 16.6579861111111 14.1025390625  16.9921875 13.8746744791667  17.2786458333333 13.5966796875  C 17.5651041666667 13.3186848958333  17.8125 12.9108072916667  18.0208333333333 12.373046875  C 18.2291666666667 11.8352864583333  18.3333333333333 11.2109375  18.3333333333333 10.5  C 18.3333333333333 7.83854166666667  17.578125 5.71484375  16.0677083333333 4.12890625  C 14.5572916666667 2.54296875  12.5347222222222 1.75  10 1.75  C 8.87152777777778 1.75  7.79296875 1.982421875  6.76432291666667 2.447265625  C 5.73567708333333 2.912109375  4.85026041666667 3.5341796875  4.10807291666667 4.3134765625  C 3.36588541666667 5.0927734375  2.7734375 6.0224609375  2.33072916666667 7.1025390625  C 1.88802083333333 8.1826171875  1.66666666666667 9.31510416666667  1.66666666666667 10.5  C 1.66666666666667 11.6848958333333  1.88802083333333 12.8173828125  2.33072916666667 13.8974609375  C 2.7734375 14.9775390625  3.36588541666667 15.9072265625  4.10807291666667 16.6865234375  C 4.85026041666667 17.4658203125  5.73567708333333 18.087890625  6.76432291666667 18.552734375  C 7.79296875 19.017578125  8.87152777777778 19.25  10 19.25  C 11.9791666666667 19.25  13.7369791666667 18.59375  15.2734375 17.28125  C 15.3689236111111 17.19921875  15.4730902777778 17.1627604166667  15.5859375 17.171875  C 15.6987847222222 17.1809895833333  15.7899305555556 17.2356770833333  15.859375 17.3359375  L 16.3932291666667 18.005859375  C 16.4626736111111 18.115234375  16.4930555555556 18.224609375  16.484375 18.333984375  C 16.4670138888889 18.4524739583333  16.4149305555556 18.552734375  16.328125 18.634765625  C 15.4427083333333 19.3912760416667  14.4552951388889 19.974609375  13.3658854166667 20.384765625  C 12.2764756944444 20.794921875  11.1545138888889 21  10 21  C 8.64583333333333 21  7.35243055555556 20.7220052083333  6.11979166666667 20.166015625  C 4.88715277777778 19.6100260416667  3.82378472222222 18.8626302083333  2.9296875 17.923828125  C 2.03559027777778 16.9850260416667  1.32378472222222 15.8684895833333  0.794270833333333 14.57421875  C 0.264756944444445 13.2799479166667  0 11.921875  0 10.5  C 0 9.078125  0.264756944444445 7.72005208333333  0.794270833333333 6.42578125  C 1.32378472222222 5.13151041666667  2.03559027777778 4.01497395833333  2.9296875 3.076171875  C 3.82378472222222 2.13736979166667  4.88715277777778 1.38997395833333  6.11979166666667 0.833984374999999  C 7.35243055555556 0.277994791666666  8.64583333333333 0  10 0  C 12.9861111111111 0  15.3993055555556 0.96614583333333  17.2395833333333 2.8984375  Z " fill-rule="nonzero" fill="#d7d7d7" stroke="none" transform="matrix(1 0 0 1 16 3447 )" />
  </g>
</svg>