<?xml version="1.0" encoding="utf-8"?>
<svg version="1.1" xmlns:xlink="http://www.w3.org/1999/xlink" width="112px" height="32px" xmlns="http://www.w3.org/2000/svg">
  <defs>
    <mask fill="white" id="clip11">
      <path d="M 0 32  L 0 2  L 34 0  L 112 2  L 112 32  L 17.75 32  L 0 32  Z " fill-rule="evenodd" />
    </mask>
  </defs>
  <g transform="matrix(1 0 0 1 0 -111 )">
    <path d="M 0 32  L 0 2  L 34 0  L 112 2  L 112 32  L 17.75 32  L 0 32  Z " fill-rule="nonzero" fill="#d7d7d7" stroke="none" transform="matrix(1 0 0 1 0 111 )" />
    <path d="M 0 32  L 0 2  L 34 0  L 112 2  L 112 32  L 17.75 32  L 0 32  Z " stroke-width="2" stroke="#d7d7d7" fill="none" transform="matrix(1 0 0 1 0 111 )" mask="url(#clip11)" />
  </g>
</svg>