<?xml version="1.0" encoding="utf-8"?>
<svg version="1.1" xmlns:xlink="http://www.w3.org/1999/xlink" width="62px" height="60px" xmlns="http://www.w3.org/2000/svg">
  <defs>
    <filter x="272px" y="1615px" width="62px" height="60px" filterUnits="userSpaceOnUse" id="filter12">
      <feOffset dx="1" dy="1" in="SourceAlpha" result="shadowOffsetInner" />
      <feGaussianBlur stdDeviation="2.5" in="shadowOffsetInner" result="shadowGaussian" />
      <feComposite in2="shadowGaussian" operator="atop" in="SourceAlpha" result="shadowComposite" />
      <feColorMatrix type="matrix" values="0 0 0 0 0  0 0 0 0 0  0 0 0 0 0  0 0 0 0.698039215686274 0  " in="shadowComposite" />
    </filter>
    <g id="widget13">
      <path d="M 302 1619  C 316.56 1619  328 1630  328 1644  C 328 1658  316.56 1669  302 1669  C 287.44 1669  276 1658  276 1644  C 276 1630  287.44 1619  302 1619  Z " fill-rule="nonzero" fill="#ffffff" stroke="none" />
      <path d="M 302 1619.5  C 316.28 1619.5  327.5 1630.28  327.5 1644  C 327.5 1657.72  316.28 1668.5  302 1668.5  C 287.72 1668.5  276.5 1657.72  276.5 1644  C 276.5 1630.28  287.72 1619.5  302 1619.5  Z " stroke-width="1" stroke="#ffffff" fill="none" />
    </g>
  </defs>
  <g transform="matrix(1 0 0 1 -272 -1615 )">
    <use xlink:href="#widget13" filter="url(#filter12)" />
    <use xlink:href="#widget13" />
  </g>
</svg>