<?xml version="1.0" encoding="utf-8"?>
<svg version="1.1" xmlns:xlink="http://www.w3.org/1999/xlink" width="50px" height="50px" xmlns="http://www.w3.org/2000/svg">
  <g transform="matrix(1 0 0 1 -127 -1620 )">
    <path d="M 25.5188067444877 23.538961038961  L 48.5408560311284 0.487012987012986  C 48.9515780371812 0.0757575757575735  49.2974492001729 -0.0649350649350677  49.5784695201038 0.0649350649350622  C 49.8594898400346 0.194805194805192  50 0.541125541125537  50 1.1038961038961  L 50 48.8961038961039  C 50 49.4588744588745  49.8594898400346 49.8051948051948  49.5784695201038 49.9350649350649  C 49.2974492001729 50.0649350649351  48.9515780371812 49.9242424242424  48.5408560311284 49.512987012987  L 25.5188067444877 26.461038961039  C 25.3242542153048 26.2662337662338  25.1837440553394 26.0606060606061  25 25.8441558441558  L 25 48.8961038961039  C 25.0972762645914 49.4588744588745  24.956766104626 49.8051948051948  24.6757457846952 49.9350649350649  C 24.3947254647644 50.0649350649351  24.0488543017726 49.9242424242424  23.6381322957198 49.512987012987  L 0.616083009079118 26.461038961039  C 0.205361003026373 26.0497835497835  0 25.5627705627706  0 25  C 0 24.4372294372294  0.205361003026373 23.9502164502164  0.616083009079118 23.538961038961  L 23.6381322957198 0.487012987012986  C 24.0488543017726 0.0757575757575735  24.3947254647644 -0.0649350649350677  24.6757457846952 0.0649350649350622  C 24.956766104626 0.194805194805192  25.0972762645914 0.541125541125537  25 1.1038961038961  L 25 24.1558441558442  C 25.1837440553394 23.9393939393939  25.3242542153048 23.7337662337662  25.5188067444877 23.538961038961  Z " fill-rule="nonzero" fill="#000000" stroke="none" transform="matrix(1 0 0 1 127 1620 )" />
  </g>
</svg>