<?xml version="1.0" encoding="utf-8"?>
<svg version="1.1" xmlns:xlink="http://www.w3.org/1999/xlink" width="83px" height="108px" xmlns="http://www.w3.org/2000/svg">
  <g transform="matrix(1 0 0 1 -471 -1091 )">
    <path d="M 1.72916666666667 96  L 81.2708333333333 96  C 81.7751736111111 96.4285714285714  82.189453125 96.609375  82.513671875 96.9709821428571  C 82.837890625 97.3325892857143  83 97.7946428571429  83 98.3571428571429  L 83 106.071428571429  C 83 106.633928571429  82.837890625 107.095982142857  82.513671875 107.457589285714  C 82.189453125 107.819196428571  81.7751736111111 108  81.2708333333333 108  L 1.72916666666667 108  C 1.22482638888889 108  0.810546875 107.819196428571  0.486328125 107.457589285714  C 0.162109375 107.095982142857  0 106.633928571429  0 106.071428571429  L 0 98.3571428571429  C 0 97.7946428571429  0.162109375 97.3325892857143  0.486328125 96.9709821428571  C 0.810546875 96.609375  1.22482638888889 96.4285714285714  1.72916666666667 96  Z M 75.9752604166667 92  L 7.02473958333333 92  C 7.1328125 90.3616071428571  7.42100694444444 88.2120535714286  7.88932291666667 86.1227678571429  C 8.35763888888889 84.0334821428571  8.89800347222222 82.125  9.51041666666667 80.3973214285714  C 10.1228298611111 78.6696428571429  10.9513888888889 76.921875  11.99609375 75.1540178571429  C 13.0407986111111 73.3861607142857  14.0044487847222 71.859375  14.8870442708333 70.5736607142857  C 15.7696397569444 69.2879464285714  16.9314236111111 67.8917410714286  18.3723958333333 66.3850446428571  C 19.8133680555556 64.8783482142857  21.0021701388889 63.6729910714286  21.9388020833333 62.7689732142857  C 22.8754340277778 61.8649553571429  24.1452907986111 60.7600446428571  25.7483723958333 59.4542410714286  C 27.3514539930556 58.1484375  28.5492621527778 57.1941964285714  29.341796875 56.5915178571429  C 30.1343315972222 55.9888392857143  31.3051215277778 55.125  32.8541666666667 54  C 31.3051215277778 52.875  30.1343315972222 52.0111607142857  29.341796875 51.4084821428571  C 28.5492621527778 50.8058035714286  27.3514539930556 49.8515625  25.7483723958333 48.5457589285714  C 24.1452907986111 47.2399553571428  22.8754340277778 46.1350446428571  21.9388020833333 45.2310267857143  C 21.0021701388889 44.3270089285714  19.8133680555556 43.1216517857143  18.3723958333333 41.6149553571429  C 16.9314236111111 40.1082589285714  15.7696397569444 38.7120535714286  14.8870442708333 37.4263392857143  C 14.0044487847222 36.140625  13.0407986111111 34.6138392857143  11.99609375 32.8459821428571  C 10.9513888888889 31.078125  10.1228298611111 29.3303571428571  9.51041666666667 27.6026785714286  C 8.89800347222222 25.875  8.35763888888889 23.9665178571429  7.88932291666667 21.8772321428571  C 7.42100694444444 19.7879464285714  7.1328125 17.6383928571429  7.02473958333333 16  L 75.9752604166667 16  C 75.8671875 17.6383928571429  75.5789930555556 19.7879464285714  75.1106770833333 21.8772321428571  C 74.6423611111111 23.9665178571429  74.1019965277778 25.875  73.4895833333333 27.6026785714286  C 72.8771701388889 29.3303571428571  72.0486111111111 31.078125  71.00390625 32.8459821428571  C 69.9592013888889 34.6138392857143  68.9955512152778 36.140625  68.1129557291667 37.4263392857143  C 67.2303602430556 38.7120535714286  66.0685763888889 40.1082589285714  64.6276041666667 41.6149553571429  C 63.1866319444445 43.1216517857143  61.9978298611111 44.3270089285714  61.0611979166667 45.2310267857143  C 60.1245659722222 46.1350446428571  58.8547092013889 47.2399553571428  57.2516276041667 48.5457589285714  C 55.6485460069445 49.8515625  54.4507378472222 50.8058035714286  53.658203125 51.4084821428571  C 52.8656684027778 52.0111607142857  51.6948784722222 52.875  50.1458333333333 54  C 51.6948784722222 55.125  52.8656684027778 55.9888392857143  53.658203125 56.5915178571429  C 54.4507378472222 57.1941964285714  55.6485460069445 58.1484375  57.2516276041667 59.4542410714286  C 58.8547092013889 60.7600446428571  60.1245659722222 61.8649553571429  61.0611979166667 62.7689732142857  C 61.9978298611111 63.6729910714286  63.1866319444445 64.8783482142857  64.6276041666667 66.3850446428571  C 66.0685763888889 67.8917410714286  67.2303602430556 69.2879464285714  68.1129557291667 70.5736607142857  C 68.9955512152778 71.859375  69.9592013888889 73.3861607142857  71.00390625 75.1540178571429  C 72.0486111111111 76.921875  72.8771701388889 78.6696428571429  73.4895833333333 80.3973214285714  C 74.1019965277778 82.125  74.6423611111111 84.0334821428571  75.1106770833333 86.1227678571429  C 75.5789930555556 88.2120535714286  75.8671875 90.3616071428571  75.9752604166667 92  Z M 1.72916666666667 0  L 81.2708333333333 0  C 81.7751736111111 0  82.189453125 0.180803571428566  82.513671875 0.542410714285711  C 82.837890625 0.904017857142855  83 1.36607142857142  83 1.92857142857143  L 83 9.64285714285714  C 83 10.2053571428571  82.837890625 10.6674107142857  82.513671875 11.0290178571429  C 82.189453125 11.390625  81.7751736111111 11.5714285714286  81.2708333333333 12  L 1.72916666666667 12  C 1.22482638888889 11.5714285714286  0.810546875 11.390625  0.486328125 11.0290178571429  C 0.162109375 10.6674107142857  0 10.2053571428571  0 9.64285714285714  L 0 1.92857142857143  C 0 1.36607142857142  0.162109375 0.904017857142855  0.486328125 0.542410714285711  C 0.810546875 0.180803571428566  1.22482638888889 0  1.72916666666667 0  Z " fill-rule="nonzero" fill="#000000" stroke="none" transform="matrix(1 0 0 1 471 1091 )" />
  </g>
</svg>