<?xml version="1.0" encoding="utf-8"?>
<svg version="1.1" xmlns:xlink="http://www.w3.org/1999/xlink" width="275px" height="551px" xmlns="http://www.w3.org/2000/svg">
  <g transform="matrix(1 0 0 1 -76 -2194 )">
    <path d="M 76 2194  L 351 2194  L 351 2745  L 76 2745  L 76 2194  " fill-rule="nonzero" fill="#cccccc" stroke="none" />
    <path d="M 95 2213  L 332 2213  L 332 2726  L 95 2726  L 95 2213  " fill-rule="nonzero" fill="#ffffff" stroke="none" />
    <path d="M 239.625 2317.9  C 228.075 2317.9  219 2308.825  219 2297.275  C 219 2285.725  228.075 2276.65  239.625 2276.65  C 251.175 2276.65  260.25 2285.725  260.25 2297.275  C 260.25 2308.825  251.175 2317.9  239.625 2317.9  " fill-rule="nonzero" fill="#cccccc" stroke="none" />
    <path d="M 102 2719  L 102 2444.55  L 157.75 2319.8  L 235.8 2419.6  L 280.4 2394.65  L 325 2419.6  L 325 2719  L 102 2719  " fill-rule="nonzero" fill="#169bd5" stroke="none" />
  </g>
</svg>